<svg width="35" height="35" fill="none" xmlns="http://www.w3.org/2000/svg"><g clip-path="url(#clip0_1_6341)"><path d="M17.538 12.615c.462.462.924.923 1.308 1.385l5.77 5.77c.46.46.692 1 .46 1.615-.307 1-1.614 1.384-2.384.615l-4.923-4.923c-.23-.23-.384-.23-.692 0l-4.77 4.77c-.307.307-.692.538-1.153.538-.616 0-1.077-.308-1.308-.847-.23-.538-.154-1.076.308-1.538.615-.692 1.307-1.308 1.923-1.923l5.23-5.23.231-.232zM34.615 29.77L35 5.923C35.077 3 32.692.462 29.692.462L5.923 0C2.923-.077.462 2.308.385 5.308L0 29.154c-.077 2.923 2.308 5.461 5.308 5.461L29.154 35c2.923.077 5.384-2.308 5.461-5.23z" fill="#48BFDB"/></g><defs><clipPath id="clip0_1_6341"><path fill="#fff" d="M0 0h35v35H0z"/></clipPath></defs></svg>