<svg width="20" height="20" fill="none" xmlns="http://www.w3.org/2000/svg"><g clip-path="url(#clip0_1_7369)" fill="#F7A949"><path d="M20 10c0 5.556-4.489 10-10.044 10C4.356 20 0 15.422 0 9.956 0 4.533 4.444-.044 10.044 0 15.556.044 20 4.489 20 10zM9.2 4.356A59.896 59.896 0 006.533 3.6l-.4 1.333c.045.045.09.045.134.045.355.133.666.222 1.022.355.178.045.311.223.355.4.045.09 0 .223-.044.311-.444 1.556-.933 3.112-1.378 4.667-.089.356-.222.711-.31 1.111-.045.222-.223.356-.445.4-.09 0-.178 0-.267-.044-.267-.09-.578-.178-.844-.267-.134.489-.267.933-.356 1.378.8.267 1.556.533 2.311.755-.222.756-.444 1.467-.622 2.178.444.133.844.267 1.289.4.222-.71.4-1.422.622-2.133.356.133.667.222 1.022.355-.178.712-.4 1.378-.578 2.09.445.133.845.221 1.29.355.177-.711.4-1.378.577-2.089.045 0 .089 0 .133.044a7.724 7.724 0 001.734.223c.444 0 .889-.045 1.333-.178a2.22 2.22 0 001.2-.8 3.38 3.38 0 00.4-.8c.133-.534.222-1.067.133-1.645a2.284 2.284 0 00-.666-1.244c-.178-.133-.356-.267-.622-.356.088-.044.177-.044.266-.089 1.29-.488 1.778-1.91 1.422-2.933a2.39 2.39 0 00-.933-1.244 5.33 5.33 0 00-1.422-.711c-.045 0-.089-.045-.178-.045.222-.71.4-1.378.622-2.044-.4-.134-.8-.267-1.244-.4-.222.71-.445 1.378-.622 2.089-.356-.09-.667-.178-1.023-.267.223-.8.4-1.511.578-2.222-.444-.134-.844-.222-1.244-.356-.222.711-.4 1.422-.578 2.134z"/><path d="M8.133 12.933l.8-2.8c.045 0 .134 0 .178.045.667.133 1.289.31 1.867.622.31.178.622.355.844.667.267.355.4.755.267 1.2-.089.355-.311.622-.667.71-.355.134-.666.134-1.022.09a6.813 6.813 0 01-2.089-.49c-.089-.044-.133-.044-.178-.044zm1.2-4.133c.223-.844.49-1.689.711-2.533.267.044.534.089.8.177.356.09.712.223 1.067.4.222.134.444.312.622.534.267.4.311.8.134 1.2-.09.267-.312.4-.534.489a2.517 2.517 0 01-.8.133c-.666 0-1.289-.178-1.866-.355-.045-.045-.09-.045-.134-.045z"/></g><defs><clipPath id="clip0_1_7369"><path fill="#fff" d="M0 0h20v20H0z"/></clipPath></defs></svg>