<svg width="17" height="15" fill="none" xmlns="http://www.w3.org/2000/svg"><g clip-path="url(#clip0_1_6423)" fill="#40B6A7"><path d="M7.683 3.895c-.993-.068-1.93-.116-2.862-.193a13.47 13.47 0 01-3.007-.576C1.37 2.985.939 2.814.566 2.528c-.212-.164-.392-.35-.37-.65.02-.27.212-.428.402-.572C1.032.974 1.544.8 2.062.653 2.923.405 3.805.26 4.696.16a25.035 25.035 0 013.64-.148C9.16.039 9.98.125 10.8.199c.84.074 1.666.245 2.473.486.492.148.971.318 1.386.637.09.067.174.145.244.231.213.264.194.554-.045.808-.318.337-.726.517-1.15.672-.972.35-1.982.55-3.008.64-1.023.09-2.049.15-3.017.222z"/><path d="M.167 2.891c.37.598.959.798 1.534.997.865.296 1.763.444 2.666.563 1.374.177 2.753.222 4.136.177.77-.026 1.538-.11 2.303-.18.396-.039.791-.106 1.206-.164 0 .267-.003.527 0 .785 0 .112.003.225.02.334.022.164.144.238.286.254.145.016.26-.061.315-.2a.717.717 0 00.039-.234c.003-.36.003-.717.003-1.09l.386-.113v.627c0 .065-.007.129.003.193.02.164.119.251.26.245.136-.007.226-.094.229-.258.006-.273.01-.546 0-.82-.004-.112.032-.167.138-.215.273-.12.55-.238.8-.396.207-.125.377-.305.567-.466v.775c0 .215-.02.43 0 .643.026.312-.129.518-.354.695-.396.309-.852.508-1.319.675-.926.328-1.884.521-2.859.653-1.44.193-2.89.241-4.341.158-1.383-.08-2.744-.293-4.069-.708-.55-.174-1.087-.373-1.556-.72-.258-.193-.415-.431-.4-.785.02-.418.007-.836.007-1.254v-.17zm14.727 8.459c0 .543.01 1.08-.003 1.614-.007.258-.203.418-.393.557-.563.414-1.212.65-1.878.816-.778.194-1.566.367-2.36.48a17.713 17.713 0 01-3.715.144c-.663-.045-1.325-.083-1.981-.167-1.287-.17-2.557-.418-3.721-1.029-.251-.132-.473-.325-.685-.514a.496.496 0 01-.145-.325c-.016-.525-.007-1.049-.007-1.573.107.1.197.215.316.286.34.203.691.399 1.045.576.116.058.157.11.151.235-.01.257-.003.514-.003.772 0 .18.1.295.244.292.148-.003.238-.116.238-.302v-.769c.12.03.229.042.322.087.042.023.077.106.077.16.006.338 0 .676.003 1.014.003.267.184.418.422.354.144-.039.234-.177.234-.377.004-.321 0-.643 0-.984.267.039.521.084.779.113.55.064 1.103.148 1.656.18.775.045 1.553.074 2.328.064.737-.01 1.477-.067 2.21-.122.968-.07 1.926-.228 2.862-.486.602-.167 1.2-.353 1.692-.759.116-.093.202-.215.312-.337zm-1.479-2.82c0 .308-.004.61 0 .916 0 .08.01.16.032.234.041.145.19.242.328.229.148-.016.276-.126.283-.28.012-.322.01-.643.016-.962.006-.347-.055-.263.28-.363.035-.01.07-.016.122-.029v.775c0 .187.09.286.25.283.152-.003.232-.1.232-.28 0-.273.003-.546-.003-.82-.003-.096.029-.141.119-.177.177-.07.35-.15.524-.234.328-.161.627-.36.872-.698v.511c0 .331-.007.666.003.997a.724.724 0 01-.26.579c-.345.309-.76.492-1.178.666-.778.315-1.588.511-2.415.64-.695.109-1.396.212-2.097.247a30.71 30.71 0 01-2.714.023 18.45 18.45 0 01-2.261-.238c-1.145-.187-2.28-.44-3.31-1.02a2.57 2.57 0 01-.376-.267.741.741 0 01-.286-.643c.016-.476.003-.952.003-1.437.518.71 1.31.9 2.078 1.119.875.247 1.772.366 2.676.463 1.231.132 2.47.151 3.704.11.743-.023 1.483-.11 2.223-.18.38-.04.756-.107 1.155-.165z"/><path d="M1.624 6.313c.502.151 1 .315 1.509.45.839.229 1.698.36 2.563.45a16.88 16.88 0 003.016.052c.862-.064 1.721-.17 2.58-.283.888-.116 1.762-.305 2.595-.643.357-.145.695-.344 1.03-.544a.784.784 0 00.405-.614c.315.129.614.267.858.499.415.395.383.775-.077 1.125-.428.325-.923.505-1.431.656-.83.248-1.679.39-2.538.492a26.506 26.506 0 01-4.373.152c-1.464-.068-2.918-.222-4.33-.64-.543-.161-1.08-.345-1.514-.727-.126-.113-.216-.267-.322-.402.003-.01.016-.016.03-.023zm-.45 3.01c.1.531.492.73.868.933.769.409 1.608.614 2.454.778a20.876 20.876 0 002.949.386c.534.033 1.071.071 1.605.055a33.668 33.668 0 002.206-.145 14.21 14.21 0 003.098-.675c.173-.058.347-.125.537-.196-.068.276-.248.444-.454.588-.45.316-.968.49-1.489.634-.807.228-1.63.357-2.463.46-1.345.164-2.692.193-4.04.148-1.415-.045-2.824-.184-4.2-.54-.624-.161-1.242-.348-1.779-.724-.556-.39-.579-.84-.038-1.251.222-.174.482-.293.746-.45z"/></g><defs><clipPath id="clip0_1_6423"><path fill="#fff" d="M0 0h16.47v15H0z"/></clipPath></defs></svg>