<svg width="35" height="35" fill="none" xmlns="http://www.w3.org/2000/svg"><g clip-path="url(#clip0_1_158)"><path d="M35 17.5c0 9.722-7.947 17.584-17.67 17.5C7.779 34.916 0 27.138 0 17.416 0 7.778 7.862 0 17.584 0 27.307 0 35 7.862 35 17.5zM14.795 29.59h4.311V19.105h3.297c.17-1.437.338-2.79.592-4.142h-3.889v-3.382c0-.676.338-1.183 1.015-1.353.169-.084.423-.084.592-.084h2.62v-3.72h-.084c-1.437-.169-2.79-.253-4.227-.084-1.691.253-3.044 1.099-3.805 2.705-.422.845-.507 1.69-.507 2.62v3.382h-3.466v4.143h3.466c.085 3.382.085 6.848.085 10.398z" fill="#474D5B"/></g><defs><clipPath id="clip0_1_158"><path fill="#fff" d="M0 0h35v35H0z"/></clipPath></defs></svg>