<svg width="14" height="15" fill="none" xmlns="http://www.w3.org/2000/svg"><path d="M6.875 1.03h4.871c.35 0 .67.057.846.407.175.35.03.642-.175.934a585.834 585.834 0 00-3.908 5.016c-.117.146-.175.38-.205.555v5.366c0 .35-.087.642-.437.788-.35.146-.613.029-.875-.233-.408-.438-.846-.846-1.254-1.255a1.014 1.014 0 01-.321-.787c.03-1.284 0-2.596 0-3.88 0-.174-.088-.378-.175-.524C3.9 5.725 2.617 4.063 1.304 2.4c-.233-.292-.408-.583-.233-.962.175-.38.525-.438.875-.438 1.663.03 3.296.03 4.93.03z" stroke="#83989E" stroke-width=".75" stroke-miterlimit="10"/></svg>