<svg width="570" height="246" fill="none" xmlns="http://www.w3.org/2000/svg"><g opacity=".2"><g opacity=".5"><path d="M73.178 22.353L87.794 4.085c.636.454 1.543.34 2.088-.34.726-.908.726-2.27 0-3.064-.726-.908-1.816-.908-2.451 0-.545.68-.635 1.815-.272 2.61L72.815 21.219H7.45c-.182-.908-.908-1.589-1.725-1.589C4.726 19.63 4 20.651 4 21.786c0 1.248.817 2.156 1.725 2.156.817 0 1.452-.68 1.725-1.589h65.728z" fill="url(#paint0_linear_1_9)"/><path d="M63.736 30.523c-.998 0-1.725 1.021-1.725 2.156 0 1.248.817 2.156 1.725 2.156.817 0 1.453-.68 1.725-1.589h25.42l20.517-25.644h75.624c.181.908.907 1.589 1.724 1.589.999 0 1.725-1.021 1.725-2.156 0-1.248-.817-2.156-1.725-2.156-.817 0-1.452.681-1.724 1.589h-76.078L90.427 32.225H65.46c-.181-1.021-.908-1.702-1.725-1.702z" fill="url(#paint1_linear_1_9)"/><path d="M118.842 23.261c-.998 0-1.725 1.021-1.725 2.156 0 1.248.818 2.156 1.725 2.156.817 0 1.453-.681 1.725-1.589h87.426l13.617 17.02h92.601c.181.908.907 1.59 1.725 1.59.998 0 1.724-1.022 1.724-2.157 0-1.134-.817-2.156-1.724-2.156-.818 0-1.453.681-1.725 1.589h-92.328l-13.618-17.02h-87.788c-.182-.908-.818-1.589-1.635-1.589z" fill="url(#paint2_linear_1_9)"/><path d="M233.412 36.764c.817 0 1.453-.681 1.725-1.589h93.69l19.791-24.736h64.639c.181.908.907 1.589 1.724 1.589.999 0 1.725-1.022 1.725-2.156 0-1.248-.817-2.156-1.725-2.156-.817 0-1.452.68-1.724 1.588h-65.002L328.373 34.04h-93.326c-.182-.907-.908-1.588-1.725-1.588-.999 0-1.725 1.021-1.725 2.156 0 1.248.817 2.156 1.815 2.156z" fill="url(#paint3_linear_1_9)"/><path d="M342.263 52.423h-63.912c-.182-.908-.908-1.589-1.725-1.589-.999 0-1.725 1.021-1.725 2.156 0 1.248.817 2.156 1.725 2.156.817 0 1.452-.68 1.725-1.589h64.275l22.424-28.026h69.722l14.163 17.7h73.626c.182.908.908 1.59 1.725 1.59.999 0 1.725-1.022 1.725-2.157 0-1.248-.817-2.156-1.725-2.156-.817 0-1.453.681-1.725 1.589h-73.263l-14.072-17.701h-70.539l-22.424 28.027z" fill="url(#paint4_linear_1_9)"/><path d="M88.883 226.143l-19.337-24.169H13.351c-.182-.908-.908-1.588-1.725-1.588-.999 0-1.725 1.021-1.725 2.156 0 1.134.817 2.155 1.725 2.155.817 0 1.453-.68 1.725-1.588h55.832l19.065 23.828c-.363.795-.272 1.929.272 2.61.727.908 1.816.908 2.452 0 .726-.908.726-2.269 0-3.064-.545-.68-1.362-.794-2.088-.34z" fill="url(#paint5_linear_1_9)"/><path d="M187.294 221.264c.999 0 1.725-1.021 1.725-2.156 0-1.135-.817-2.156-1.725-2.156-.817 0-1.453.681-1.725 1.589h-90.33l-10.622-13.276c.363-.794.272-1.929-.273-2.61-.726-.908-1.815-.908-2.45 0-.727.908-.727 2.269 0 3.064.544.681 1.452.794 2.087.34l10.894 13.616h90.694c.182.908.908 1.589 1.725 1.589z" fill="url(#paint6_linear_1_9)"/><path d="M378.94 237.603c.999 0 1.725-1.021 1.725-2.155 0-1.135-.817-2.156-1.725-2.156-.817 0-1.453.68-1.725 1.588h-93.054l-19.973-24.963h-44.121l-15.796 19.744h-25.692c-.182-.908-.908-1.589-1.725-1.589-.999 0-1.725 1.021-1.725 2.156 0 1.135.817 2.156 1.725 2.156.817 0 1.452-.681 1.725-1.589h26.055l15.796-19.743h43.304l19.973 24.963h93.508c.182.908.908 1.588 1.725 1.588z" fill="url(#paint7_linear_1_9)"/><path d="M13.078 191.876c.818 0 1.453-.681 1.725-1.589h61.37l29.415-36.764h66.091l20.063-25.076c.636.453 1.544.34 2.088-.341.727-.908.727-2.269 0-3.063-.726-.908-1.815-.908-2.451 0-.545.68-.635 1.815-.272 2.609l-19.791 24.736h-66.091L75.72 189.152H14.803c-.181-.907-.908-1.588-1.725-1.588-.998 0-1.724 1.021-1.724 2.156 0 1.248.817 2.156 1.724 2.156z" fill="url(#paint8_linear_1_9)"/><path d="M264.461 196.755l14.707 18.382h112.3l14.526 18.155 22.242-27.8h78.983c.181.908.907 1.588 1.724 1.588.999 0 1.725-1.021 1.725-2.156 0-1.134-.817-2.155-1.725-2.155-.817 0-1.452.68-1.724 1.588h-79.346l-21.788 27.233-14.163-17.702H279.531l-14.707-18.381h-68.27l-25.692-32.112h-62.823l-15.978 20.084c-.636-.454-1.543-.341-2.088.34-.726.908-.726 2.27 0 3.064.726.908 1.816.908 2.451 0 .545-.681.636-1.816.272-2.61l15.797-19.743h62.006l25.692 32.111h68.27v.114z" fill="url(#paint9_linear_1_9)"/><path d="M176.854 202.769c.726.907 1.815.907 2.451 0 .726-.908.726-2.27 0-3.064-.545-.681-1.453-.794-2.088-.341l-7.808-9.758h-59.463l-7.626 9.532c-.636-.454-1.544-.341-2.088.34-.727.908-.727 2.269 0 3.064.726.907 1.815.907 2.451 0 .544-.681.635-1.816.272-2.61l7.354-9.191h58.737l7.535 9.418c-.454.794-.363 1.929.273 2.61z" fill="url(#paint10_linear_1_9)"/><path d="M232.777 66.833l-27.235-33.927H116.3l-9.532 11.914H13.532c-.181-.908-.908-1.589-1.725-1.589-.998 0-1.724 1.022-1.724 2.156 0 1.135.817 2.156 1.724 2.156.817 0 1.453-.68 1.725-1.588h93.69l9.532-11.914h88.424l27.145 33.927h119.382l21.152-26.439c.636.454 1.544.34 2.088-.34.727-.908.727-2.27 0-3.064-.726-.907-1.815-.907-2.451 0-.544.681-.635 1.816-.272 2.61l-20.88 26.098H232.777z" fill="url(#paint11_linear_1_9)"/><path d="M96.328 70.01c-.726-.908-1.816-.908-2.451 0-.727.908-.727 2.27 0 3.064.544.68 1.452.794 2.088.34l5.992 7.49h93.689l14.98-18.723h6.173c.181.908.908 1.588 1.725 1.588.998 0 1.725-1.02 1.725-2.156 0-1.248-.817-2.155-1.725-2.155-.817 0-1.453.68-1.725 1.588h-6.537l-14.979 18.722H102.32L96.6 72.62c.363-.794.273-1.816-.272-2.61z" fill="url(#paint12_linear_1_9)"/><path d="M106.405 64.337l-6.627-8.284H35.865c-.181-.907-.907-1.588-1.725-1.588-.998 0-1.724 1.021-1.724 2.156 0 1.248.817 2.156 1.724 2.156.818 0 1.453-.681 1.725-1.589h63.55l6.627 8.283h79.709l8.17-10.212c.636.454 1.543.34 2.088-.34.726-.908.726-2.27 0-3.064-.726-.908-1.815-.908-2.451 0-.545.68-.635 1.816-.272 2.61l-7.899 9.872h-78.982z" fill="url(#paint13_linear_1_9)"/><path d="M76.264 73.868c-.726-.908-1.815-.908-2.45 0-.727.908-.727 2.27 0 3.064.544.68 1.452.794 2.087.34l23.877 29.842h106.944l19.609-24.509c.636.454 1.544.34 2.088-.34.727-.908.727-2.27 0-3.064-.726-.908-1.815-.908-2.451 0-.545.68-.635 1.816-.272 2.61l-19.337 24.169H100.141L76.537 76.478c.363-.794.272-1.93-.273-2.61z" fill="url(#paint14_linear_1_9)"/><path d="M429.416 35.63c-.817 0-1.452.68-1.725 1.588h-37.585l-29.595 36.99H220.884l-17.34 21.673h-99.863l-22.06-27.46H18.798c-.182-.907-.908-1.588-1.725-1.588-.999 0-1.725 1.021-1.725 2.156 0 1.248.817 2.156 1.725 2.156.817 0 1.453-.681 1.725-1.589h62.46l22.06 27.573h100.589l17.34-21.672h139.627l29.596-36.991h37.221c.182.908.908 1.588 1.725 1.588.999 0 1.725-1.02 1.725-2.156 0-1.248-.817-2.269-1.725-2.269z" fill="url(#paint15_linear_1_9)"/><path d="M180.848 155.793c-.726-.908-1.816-.908-2.451 0-.726.907-.726 2.269 0 3.063.545.681 1.453.794 2.088.341l18.066 22.58h86.881l31.956-39.941h65.728c.182.908.908 1.588 1.725 1.588.999 0 1.725-1.021 1.725-2.155 0-1.135-.817-2.156-1.725-2.156-.817 0-1.453.68-1.725 1.588h-66.091l-31.956 39.941h-86.064l-17.794-22.24c.363-.907.273-1.929-.363-2.609z" fill="url(#paint16_linear_1_9)"/><path d="M104.226 115.965c-.182-.908-.908-1.589-1.725-1.589-.998 0-1.725 1.022-1.725 2.156 0 1.248.817 2.156 1.725 2.156.817 0 1.453-.681 1.725-1.588h74.171l-15.252 19.062c-.635-.454-1.543-.34-2.088.341-.726.907-.726 2.269 0 3.063.726.908 1.816.908 2.451 0 .545-.68.636-1.815.273-2.609l16.795-20.992h-76.35z" fill="url(#paint17_linear_1_9)"/><path d="M216.345 118.802l-26.146 32.679 14.344 17.928h77.53l30.776-38.466c.635.454 1.543.34 2.088-.34.726-.908.726-2.27 0-3.064-.726-.908-1.816-.908-2.451 0-.545.681-.636 1.815-.273 2.61l-30.503 38.125h-76.713l-13.436-16.793 27.054-33.814h-29.142l-13.346 16.793c-.635-.453-1.543-.34-2.088.341-.726.908-.726 2.269 0 3.064.727.907 1.816.907 2.452 0 .544-.681.635-1.816.272-2.61l13.073-16.34h26.509v-.113z" fill="url(#paint18_linear_1_9)"/><path d="M152.887 131.51c.181.908.907 1.589 1.724 1.589.999 0 1.725-1.022 1.725-2.156 0-1.248-.817-2.156-1.725-2.156-.817 0-1.452.681-1.724 1.588h-49.206L67.912 85.669H24.336c-.182-.908-.908-1.589-1.725-1.589-.999 0-1.725 1.021-1.725 2.156 0 1.135.817 2.156 1.725 2.156.817 0 1.452-.68 1.725-1.589h43.122l35.769 44.707h49.66z" fill="url(#paint19_linear_1_9)"/><path d="M14.985 174.401c-.182-.908-.908-1.588-1.725-1.588-.999 0-1.725 1.021-1.725 2.156 0 1.134.817 2.155 1.725 2.155.817 0 1.453-.68 1.725-1.588h63.368l20.517-25.644c.635.454 1.543.34 2.088-.34.726-.908.726-2.27 0-3.064-.726-.908-1.816-.908-2.451 0-.545.681-.636 1.815-.273 2.61L77.99 174.401H14.985z" fill="url(#paint20_linear_1_9)"/><path d="M234.593 88.052l-11.712 14.637c-.635-.454-1.543-.34-2.088.34-.726.908-.726 2.27 0 3.064.727.908 1.816.908 2.452 0 .544-.681.635-1.815.272-2.61l11.439-14.297h134.088l11.893-14.864c.636.454 1.544.34 2.088-.34.727-.908.727-2.27 0-3.064-.726-.908-1.815-.908-2.451 0-.545.68-.635 1.815-.272 2.61l-11.621 14.524H234.593z" fill="url(#paint21_linear_1_9)"/><path d="M359.966 115.398c.999 0 1.725-1.022 1.725-2.156 0-1.135-.817-2.156-1.725-2.156-.817 0-1.453.681-1.725 1.588h-59.373l-16.069 20.084h-66.726l19.609-24.509c.636.454 1.543.341 2.088-.34.726-.908.726-2.27 0-3.064-.726-.908-1.816-.908-2.451 0-.545.681-.636 1.816-.272 2.61l-21.244 26.552h69.359l16.069-20.084h59.01c.272.794.908 1.475 1.725 1.475z" fill="url(#paint22_linear_1_9)"/><path d="M211.624 154.431l-4.539-5.674c.363-.794.272-1.929-.272-2.609-.727-.908-1.816-.908-2.452 0-.635.907-.726 2.269 0 3.063.545.681 1.453.794 2.088.341l4.812 6.013h69.269l18.61-23.261c.636.454 1.544.341 2.088-.34.727-.908.727-2.269 0-3.064-.726-.907-1.815-.907-2.451 0-.544.681-.635 1.816-.272 2.61l-18.339 22.921h-68.542z" fill="url(#paint23_linear_1_9)"/><path d="M418.794 54.578h25.511c.181.908.908 1.589 1.725 1.589.998 0 1.725-1.021 1.725-2.156 0-1.248-.817-2.156-1.725-2.156-.817 0-1.453.68-1.725 1.589h-25.874l-39.128 48.905h-89.059l-13.346 16.68h-37.494l12.438-15.546c.635.454 1.543.341 2.088-.34.726-.908.726-2.269 0-3.064-.727-.907-1.816-.907-2.451 0-.545.681-.636 1.816-.273 2.61l-14.071 17.588h40.126l13.346-16.68h89.059l39.128-49.019z" fill="url(#paint24_linear_1_9)"/><path d="M481.708 194.145c-.817 0-1.453.681-1.725 1.588h-52.927l-11.53 14.411h-17.794l-7.716-9.645H282.618l-7.717-9.645h-15.433c-.182-.907-.908-1.588-1.725-1.588-.999 0-1.725 1.021-1.725 2.156 0 1.248.817 2.156 1.725 2.156.817 0 1.452-.681 1.725-1.589h15.07l7.716 9.645h107.399l7.716 9.645h18.52l11.53-14.411h52.564c.182.908.908 1.589 1.725 1.589.999 0 1.725-1.022 1.725-2.156 0-1.135-.726-2.156-1.725-2.156z" fill="url(#paint25_linear_1_9)"/><path d="M75.901 119.596c.727.908 1.816.908 2.452 0 .726-.908.726-2.269 0-3.064-.545-.681-1.453-.794-2.088-.34L61.556 97.697H23.52c-.182-.908-.908-1.59-1.725-1.59-.999 0-1.725 1.022-1.725 2.157 0 1.248.817 2.156 1.725 2.156.817 0 1.452-.681 1.725-1.589h37.675l14.526 18.155c-.454.794-.363 1.929.181 2.61z" fill="url(#paint26_linear_1_9)"/><path d="M12.17 160.672c.818 0 1.453-.681 1.726-1.589h54.561l14.344-17.928h34.316c.182.908.908 1.589 1.725 1.589.999 0 1.725-1.022 1.725-2.156 0-1.135-.817-2.156-1.725-2.156-.817 0-1.452.681-1.725 1.588h-34.77l-14.344 17.928H13.895c-.181-.907-.907-1.588-1.724-1.588-.999 0-1.725 1.021-1.725 2.156 0 1.248.726 2.156 1.725 2.156z" fill="url(#paint27_linear_1_9)"/><path d="M12.715 130.149c-.998 0-1.725 1.021-1.725 2.155 0 1.135.817 2.156 1.725 2.156.817 0 1.453-.68 1.725-1.588h39.128l9.533-11.914c.635.453 1.543.34 2.088-.341.726-.908.726-2.269 0-3.064-.726-.907-1.816-.907-2.451 0-.545.681-.636 1.816-.273 2.61l-9.26 11.574H14.44c-.181-.908-.908-1.588-1.725-1.588z" fill="url(#paint28_linear_1_9)"/><path d="M19.343 148.304c.817 0 1.452-.681 1.724-1.589h37.495l14.343-17.928h17.25c.181.908.907 1.589 1.724 1.589.999 0 1.725-1.022 1.725-2.156 0-1.249-.817-2.156-1.725-2.156-.817 0-1.452.681-1.725 1.588H72.451L58.108 145.58h-37.04c-.182-.907-.908-1.588-1.725-1.588-.999 0-1.725 1.021-1.725 2.156 0 1.134.726 2.156 1.725 2.156z" fill="url(#paint29_linear_1_9)"/><path d="M386.384 169.068c.182.908.908 1.589 1.725 1.589.999 0 1.725-1.021 1.725-2.156 0-1.135-.817-2.156-1.725-2.156-.817 0-1.452.681-1.725 1.589h-69.178l-19.972 24.963h36.314c.181.907.908 1.588 1.725 1.588.998 0 1.724-1.021 1.724-2.156 0-1.248-.817-2.155-1.724-2.155-.817 0-1.453.68-1.725 1.588h-33.954l18.066-22.58h68.724v-.114z" fill="url(#paint30_linear_1_9)"/><path d="M418.522 173.834h56.286l21.88-27.346h35.042c.182.908.908 1.589 1.725 1.589.999 0 1.725-1.022 1.725-2.156 0-1.135-.817-2.156-1.725-2.156-.817 0-1.452.681-1.725 1.588h-35.406l-21.879 27.346h-55.469l-17.885-22.353h-79.164l-14.798 18.495c-.635-.454-1.543-.34-2.088.341-.726.908-.726 2.269 0 3.063.727.908 1.816.908 2.452 0 .544-.68.635-1.815.272-2.609l14.525-18.155h78.347l17.885 22.353z" fill="url(#paint31_linear_1_9)"/><path d="M480.255 88.619l-17.521-21.9h-41.398l-26.6 33.247c-.635-.454-1.543-.34-2.088.34-.726.908-.726 2.27 0 3.064.727.908 1.816.908 2.452 0 .544-.681.635-1.816.272-2.61L421.7 67.854h40.671l17.521 21.9h69.541c.182.907.908 1.588 1.725 1.588.999 0 1.725-1.021 1.725-2.156 0-1.134-.817-2.156-1.725-2.156-.817 0-1.452.681-1.725 1.589h-69.178z" fill="url(#paint32_linear_1_9)"/><path d="M554.426 169.409c-.817 0-1.452.68-1.724 1.588h-47.39l-14.344 17.928h-87.153l-6.083-7.602h-62.278c-.181-.908-.908-1.589-1.725-1.589-.998 0-1.725 1.021-1.725 2.156 0 1.135.817 2.156 1.725 2.156.817 0 1.453-.681 1.725-1.589h61.915l6.083 7.603h87.97l14.344-17.928h47.026c.182.908.908 1.588 1.725 1.588.999 0 1.725-1.021 1.725-2.156 0-1.134-.908-2.155-1.816-2.155z" fill="url(#paint33_linear_1_9)"/><path d="M519.293 104.164c0-1.248-.817-2.156-1.725-2.156-.817 0-1.453.681-1.725 1.589h-46.482l-12.074-15.091h-35.315c-.182-.908-.908-1.589-1.725-1.589-.999 0-1.725 1.021-1.725 2.156 0 1.135.817 2.156 1.725 2.156.817 0 1.452-.68 1.725-1.589h30.685a.988.988 0 00-.182.568h-30.049l-28.325 35.402h-62.46c-.181-.908-.908-1.589-1.725-1.589-.998 0-1.725 1.022-1.725 2.156 0 1.135.817 2.156 1.725 2.156.817 0 1.453-.681 1.725-1.588h62.823l28.325-35.403h29.686c.182.908.908 1.589 1.725 1.589.999 0 1.725-1.021 1.725-2.156 0-.454-.091-.794-.272-1.135h1.18l12.074 15.092h46.845c.182.907.908 1.588 1.725 1.588.999 0 1.816-1.021 1.816-2.156z" fill="url(#paint34_linear_1_9)"/><path d="M568.135 124.248c-.817 0-1.453.681-1.725 1.589h-74.625l-26.146 32.679h-43.122l-17.703-22.127 20.88-26.098c.635.454 1.543.341 2.088-.34.726-.908.726-2.269 0-3.064-.726-.907-1.816-.907-2.451 0-.545.681-.636 1.816-.273 2.61l-21.606 27.006 18.611 23.261h43.849l26.145-32.679h74.262c.182.908.908 1.588 1.725 1.588.999 0 1.725-1.021 1.725-2.156.182-1.248-.635-2.269-1.634-2.269z" fill="url(#paint35_linear_1_9)"/><path d="M515.026 118.688c.999 0 1.725-1.021 1.725-2.156 0-1.248-.817-2.156-1.725-2.156-.817 0-1.453.681-1.725 1.589h-70.267l-12.801 15.999c-.635-.454-1.543-.34-2.088.34-.726.908-.726 2.27 0 3.064.726.908 1.816.908 2.451 0 .545-.681.636-1.815.273-2.61l12.528-15.658h69.904c.272.907.908 1.588 1.725 1.588z" fill="url(#paint36_linear_1_9)" fill-opacity=".3"/><path d="M458.921 146.034l8.171-10.212c.635.454 1.543.34 2.088-.34.726-.908.726-2.27 0-3.064-.726-.908-1.816-.908-2.451 0-.545.681-.636 1.815-.273 2.61l-7.898 9.871h-23.422l11.62-14.523c.636.453 1.543.34 2.088-.341.726-.908.726-2.269 0-3.064-.726-.907-1.816-.907-2.451 0-.545.681-.636 1.816-.272 2.61l-13.255 16.567h26.055v-.114z" fill="url(#paint37_linear_1_9)" fill-opacity=".3"/></g></g><defs><linearGradient id="paint0_linear_1_9" x1="4" y1="11.978" x2="90.425" y2="11.978" gradientUnits="userSpaceOnUse"><stop/><stop offset=".107" stop-color="#141414"/><stop offset=".326" stop-color="#464646"/><stop offset=".637" stop-color="#989898"/><stop offset="1" stop-color="#fff"/></linearGradient><linearGradient id="paint1_linear_1_9" x1="62.007" y1="19.917" x2="190.502" y2="19.917" gradientUnits="userSpaceOnUse"><stop/><stop offset=".107" stop-color="#141414"/><stop offset=".326" stop-color="#464646"/><stop offset=".637" stop-color="#989898"/><stop offset="1" stop-color="#fff"/></linearGradient><linearGradient id="paint2_linear_1_9" x1="117.076" y1="33.913" x2="317.53" y2="33.913" gradientUnits="userSpaceOnUse"><stop/><stop offset=".107" stop-color="#141414"/><stop offset=".326" stop-color="#464646"/><stop offset=".637" stop-color="#989898"/><stop offset="1" stop-color="#fff"/></linearGradient><linearGradient id="paint3_linear_1_9" x1="231.621" y1="22.211" x2="416.655" y2="22.211" gradientUnits="userSpaceOnUse"><stop/><stop offset=".107" stop-color="#141414"/><stop offset=".326" stop-color="#464646"/><stop offset=".637" stop-color="#989898"/><stop offset="1" stop-color="#fff"/></linearGradient><linearGradient id="paint4_linear_1_9" x1="274.943" y1="39.768" x2="526.058" y2="39.768" gradientUnits="userSpaceOnUse"><stop/><stop offset=".107" stop-color="#141414"/><stop offset=".326" stop-color="#464646"/><stop offset=".637" stop-color="#989898"/><stop offset="1" stop-color="#fff"/></linearGradient><linearGradient id="paint5_linear_1_9" x1="9.874" y1="215.302" x2="91.525" y2="215.302" gradientUnits="userSpaceOnUse"><stop/><stop offset=".107" stop-color="#141414"/><stop offset=".326" stop-color="#464646"/><stop offset=".637" stop-color="#989898"/><stop offset="1" stop-color="#fff"/></linearGradient><linearGradient id="paint6_linear_1_9" x1="81.315" y1="211.583" x2="189.032" y2="211.583" gradientUnits="userSpaceOnUse"><stop/><stop offset=".107" stop-color="#141414"/><stop offset=".326" stop-color="#464646"/><stop offset=".637" stop-color="#989898"/><stop offset="1" stop-color="#fff"/></linearGradient><linearGradient id="paint7_linear_1_9" x1="175.082" y1="223.657" x2="380.676" y2="223.657" gradientUnits="userSpaceOnUse"><stop/><stop offset=".107" stop-color="#141414"/><stop offset=".326" stop-color="#464646"/><stop offset=".637" stop-color="#989898"/><stop offset="1" stop-color="#fff"/></linearGradient><linearGradient id="paint8_linear_1_9" x1="11.342" y1="158.125" x2="194.322" y2="158.125" gradientUnits="userSpaceOnUse"><stop/><stop offset=".107" stop-color="#141414"/><stop offset=".326" stop-color="#464646"/><stop offset=".637" stop-color="#989898"/><stop offset="1" stop-color="#fff"/></linearGradient><linearGradient id="paint9_linear_1_9" x1="89.392" y1="198.307" x2="510.638" y2="198.307" gradientUnits="userSpaceOnUse"><stop/><stop offset=".107" stop-color="#141414"/><stop offset=".326" stop-color="#464646"/><stop offset=".637" stop-color="#989898"/><stop offset="1" stop-color="#fff"/></linearGradient><linearGradient id="paint10_linear_1_9" x1="99.672" y1="196.494" x2="179.82" y2="196.494" gradientUnits="userSpaceOnUse"><stop/><stop offset=".107" stop-color="#141414"/><stop offset=".326" stop-color="#464646"/><stop offset=".637" stop-color="#989898"/><stop offset="1" stop-color="#fff"/></linearGradient><linearGradient id="paint11_linear_1_9" x1="10.057" y1="50.431" x2="375.501" y2="50.431" gradientUnits="userSpaceOnUse"><stop/><stop offset=".107" stop-color="#141414"/><stop offset=".326" stop-color="#464646"/><stop offset=".637" stop-color="#989898"/><stop offset="1" stop-color="#fff"/></linearGradient><linearGradient id="paint12_linear_1_9" x1="93.336" y1="70.189" x2="220.237" y2="70.189" gradientUnits="userSpaceOnUse"><stop/><stop offset=".107" stop-color="#141414"/><stop offset=".326" stop-color="#464646"/><stop offset=".637" stop-color="#989898"/><stop offset="1" stop-color="#fff"/></linearGradient><linearGradient id="paint13_linear_1_9" x1="32.451" y1="58.32" x2="196.523" y2="58.32" gradientUnits="userSpaceOnUse"><stop/><stop offset=".107" stop-color="#141414"/><stop offset=".326" stop-color="#464646"/><stop offset=".637" stop-color="#989898"/><stop offset="1" stop-color="#fff"/></linearGradient><linearGradient id="paint14_linear_1_9" x1="73.235" y1="90.153" x2="228.875" y2="90.153" gradientUnits="userSpaceOnUse"><stop/><stop offset=".107" stop-color="#141414"/><stop offset=".326" stop-color="#464646"/><stop offset=".637" stop-color="#989898"/><stop offset="1" stop-color="#fff"/></linearGradient><linearGradient id="paint15_linear_1_9" x1="15.379" y1="66.403" x2="431.153" y2="66.403" gradientUnits="userSpaceOnUse"><stop/><stop offset=".107" stop-color="#141414"/><stop offset=".326" stop-color="#464646"/><stop offset=".637" stop-color="#989898"/><stop offset="1" stop-color="#fff"/></linearGradient><linearGradient id="paint16_linear_1_9" x1="177.868" y1="160.442" x2="386.547" y2="160.442" gradientUnits="userSpaceOnUse"><stop/><stop offset=".107" stop-color="#141414"/><stop offset=".326" stop-color="#464646"/><stop offset=".637" stop-color="#989898"/><stop offset="1" stop-color="#fff"/></linearGradient><linearGradient id="paint17_linear_1_9" x1="100.737" y1="127.261" x2="180.617" y2="127.261" gradientUnits="userSpaceOnUse"><stop/><stop offset=".107" stop-color="#141414"/><stop offset=".326" stop-color="#464646"/><stop offset=".637" stop-color="#989898"/><stop offset="1" stop-color="#fff"/></linearGradient><linearGradient id="paint18_linear_1_9" x1="173.462" y1="143.526" x2="315.472" y2="143.526" gradientUnits="userSpaceOnUse"><stop/><stop offset=".107" stop-color="#141414"/><stop offset=".326" stop-color="#464646"/><stop offset=".637" stop-color="#989898"/><stop offset="1" stop-color="#fff"/></linearGradient><linearGradient id="paint19_linear_1_9" x1="20.885" y1="108.595" x2="156.357" y2="108.595" gradientUnits="userSpaceOnUse"><stop/><stop offset=".107" stop-color="#141414"/><stop offset=".326" stop-color="#464646"/><stop offset=".637" stop-color="#989898"/><stop offset="1" stop-color="#fff"/></linearGradient><linearGradient id="paint20_linear_1_9" x1="11.523" y1="161.512" x2="101.527" y2="161.512" gradientUnits="userSpaceOnUse"><stop/><stop offset=".107" stop-color="#141414"/><stop offset=".326" stop-color="#464646"/><stop offset=".637" stop-color="#989898"/><stop offset="1" stop-color="#fff"/></linearGradient><linearGradient id="paint21_linear_1_9" x1="220.271" y1="88.549" x2="383.621" y2="88.549" gradientUnits="userSpaceOnUse"><stop/><stop offset=".107" stop-color="#141414"/><stop offset=".326" stop-color="#464646"/><stop offset=".637" stop-color="#989898"/><stop offset="1" stop-color="#fff"/></linearGradient><linearGradient id="paint22_linear_1_9" x1="213.874" y1="119.062" x2="361.764" y2="119.062" gradientUnits="userSpaceOnUse"><stop/><stop offset=".107" stop-color="#141414"/><stop offset=".326" stop-color="#464646"/><stop offset=".637" stop-color="#989898"/><stop offset="1" stop-color="#fff"/></linearGradient><linearGradient id="paint23_linear_1_9" x1="203.751" y1="141.948" x2="301.705" y2="141.948" gradientUnits="userSpaceOnUse"><stop/><stop offset=".107" stop-color="#141414"/><stop offset=".326" stop-color="#464646"/><stop offset=".637" stop-color="#989898"/><stop offset="1" stop-color="#fff"/></linearGradient><linearGradient id="paint24_linear_1_9" x1="237.003" y1="85.976" x2="447.673" y2="85.976" gradientUnits="userSpaceOnUse"><stop/><stop offset=".107" stop-color="#141414"/><stop offset=".326" stop-color="#464646"/><stop offset=".637" stop-color="#989898"/><stop offset="1" stop-color="#fff"/></linearGradient><linearGradient id="paint25_linear_1_9" x1="256.031" y1="200.363" x2="483.468" y2="200.363" gradientUnits="userSpaceOnUse"><stop/><stop offset=".107" stop-color="#141414"/><stop offset=".326" stop-color="#464646"/><stop offset=".637" stop-color="#989898"/><stop offset="1" stop-color="#fff"/></linearGradient><linearGradient id="paint26_linear_1_9" x1="20.059" y1="108.161" x2="78.949" y2="108.161" gradientUnits="userSpaceOnUse"><stop/><stop offset=".107" stop-color="#141414"/><stop offset=".326" stop-color="#464646"/><stop offset=".637" stop-color="#989898"/><stop offset="1" stop-color="#fff"/></linearGradient><linearGradient id="paint27_linear_1_9" x1="10.422" y1="149.549" x2="120.561" y2="149.549" gradientUnits="userSpaceOnUse"><stop/><stop offset=".107" stop-color="#141414"/><stop offset=".326" stop-color="#464646"/><stop offset=".637" stop-color="#989898"/><stop offset="1" stop-color="#fff"/></linearGradient><linearGradient id="paint28_linear_1_9" x1="10.973" y1="125.721" x2="65.732" y2="125.721" gradientUnits="userSpaceOnUse"><stop/><stop offset=".107" stop-color="#141414"/><stop offset=".326" stop-color="#464646"/><stop offset=".637" stop-color="#989898"/><stop offset="1" stop-color="#fff"/></linearGradient><linearGradient id="paint29_linear_1_9" x1="17.581" y1="137.16" x2="93.577" y2="137.16" gradientUnits="userSpaceOnUse"><stop/><stop offset=".107" stop-color="#141414"/><stop offset=".326" stop-color="#464646"/><stop offset=".637" stop-color="#989898"/><stop offset="1" stop-color="#fff"/></linearGradient><linearGradient id="paint30_linear_1_9" x1="297.305" y1="180.35" x2="389.85" y2="180.35" gradientUnits="userSpaceOnUse"><stop/><stop offset=".107" stop-color="#141414"/><stop offset=".326" stop-color="#464646"/><stop offset=".637" stop-color="#989898"/><stop offset="1" stop-color="#fff"/></linearGradient><linearGradient id="paint31_linear_1_9" x1="304.528" y1="158.807" x2="535.234" y2="158.807" gradientUnits="userSpaceOnUse"><stop/><stop offset=".107" stop-color="#141414"/><stop offset=".326" stop-color="#464646"/><stop offset=".637" stop-color="#989898"/><stop offset="1" stop-color="#fff"/></linearGradient><linearGradient id="paint32_linear_1_9" x1="392.088" y1="85.395" x2="552.857" y2="85.395" gradientUnits="userSpaceOnUse"><stop/><stop offset=".107" stop-color="#141414"/><stop offset=".326" stop-color="#464646"/><stop offset=".637" stop-color="#989898"/><stop offset="1" stop-color="#fff"/></linearGradient><linearGradient id="paint33_linear_1_9" x1="332.028" y1="179.714" x2="556.16" y2="179.714" gradientUnits="userSpaceOnUse"><stop/><stop offset=".107" stop-color="#141414"/><stop offset=".326" stop-color="#464646"/><stop offset=".637" stop-color="#989898"/><stop offset="1" stop-color="#fff"/></linearGradient><linearGradient id="paint34_linear_1_9" x1="328.174" y1="107.563" x2="519.263" y2="107.563" gradientUnits="userSpaceOnUse"><stop/><stop offset=".107" stop-color="#141414"/><stop offset=".326" stop-color="#464646"/><stop offset=".637" stop-color="#989898"/><stop offset="1" stop-color="#fff"/></linearGradient><linearGradient id="paint35_linear_1_9" x1="403.506" y1="133" x2="569.927" y2="133" gradientUnits="userSpaceOnUse"><stop/><stop offset=".107" stop-color="#141414"/><stop offset=".326" stop-color="#464646"/><stop offset=".637" stop-color="#989898"/><stop offset="1" stop-color="#fff"/></linearGradient><linearGradient id="paint36_linear_1_9" x1="427.607" y1="125.196" x2="516.786" y2="125.196" gradientUnits="userSpaceOnUse"><stop/><stop offset=".107" stop-color="#141414"/><stop offset=".326" stop-color="#464646"/><stop offset=".637" stop-color="#989898"/><stop offset="1" stop-color="#fff"/></linearGradient><linearGradient id="paint37_linear_1_9" x1="432.775" y1="136.097" x2="469.667" y2="136.097" gradientUnits="userSpaceOnUse"><stop/><stop offset=".107" stop-color="#141414"/><stop offset=".326" stop-color="#464646"/><stop offset=".637" stop-color="#989898"/><stop offset="1" stop-color="#fff"/></linearGradient></defs></svg>