<svg width="20" height="20" fill="none" xmlns="http://www.w3.org/2000/svg"><g clip-path="url(#clip0_1_7378)"><path d="M10.356 11.022L13.6 7.778h-1.644c-.356 0-.623-.311-.578-.622 0-.312.266-.534.622-.534h3.067c.355 0 .577.222.577.578v3.067c0 .355-.222.622-.577.622-.356 0-.578-.222-.578-.622v-1.69c-.089.09-.178.134-.222.223l-3.334 3.333c-.4.4-.666.4-1.066 0l-1.423-1.422c-.088.089-.177.133-.222.222l-2.8 2.8a.968.968 0 01-.355.223c-.267.044-.49-.045-.623-.267-.133-.222-.133-.489.045-.667.267-.31.578-.578.844-.844l2.623-2.622c.355-.356.622-.356 1.022 0 .444.533.933.977 1.378 1.466zM10 0C4.489 0 0 4.489 0 10s4.489 10 10 10 10-4.489 10-10S15.511 0 10 0z" fill="#40B6A7"/></g><defs><clipPath id="clip0_1_7378"><path fill="#fff" d="M0 0h20v20H0z"/></clipPath></defs></svg>