<svg width="36" height="35" fill="none" xmlns="http://www.w3.org/2000/svg"><g clip-path="url(#clip0_1_162)"><path d="M35.866 19.146c-.086.693-.173 1.3-.26 1.993-.78 4.505-3.118 8.056-6.584 10.915-1.56 1.3-3.378 2.166-5.284 2.86-.78.26-1.386-.087-1.386-.954v-4.938c0-1.473-.26-1.992-1.127-3.119.607-.086 1.213-.173 1.733-.346 1.733-.347 3.379-1.126 4.591-2.512.78-.867 1.213-1.993 1.473-3.12.347-1.472.434-2.945.174-4.418-.174-1.213-.694-2.165-1.473-3.118-.174-.174-.174-.26-.087-.52.52-1.473.347-2.946-.173-4.332 0-.087-.173-.173-.347-.173-.606-.087-1.212.086-1.732.346-.867.434-1.733.867-2.6 1.387-.173.086-.346.173-.606.086a16.893 16.893 0 00-8.317 0c-.173.087-.433 0-.606-.086-1.213-.694-2.426-1.3-3.725-1.647-.867-.173-1.04-.086-1.213.694-.347 1.299-.433 2.598 0 3.811 0 .087 0 .26-.087.347-.78.953-1.386 1.992-1.56 3.205-.346 2.513 0 5.025 1.474 7.191.78 1.126 1.905 1.82 3.118 2.253.953.346 1.906.52 2.86.692.173 0 .346.087.433.087-.26.52-.52.953-.78 1.473-.087.173-.174.346-.174.52 0 .433-.26.606-.606.693-.953.26-1.906.433-2.945 0-.78-.347-1.3-.867-1.733-1.56-.52-.866-1.213-1.559-2.253-1.905-.346-.087-.693-.087-1.126-.087-.346 0-.346.173-.173.433.26.346.433.52.606.693.953.52 1.473 1.386 1.906 2.34.26.519.52 1.125.953 1.559.78.693 1.646.953 2.6.953.866.086 1.732 0 2.598 0v3.118c0 .867-.606 1.3-1.386.953C6.931 33.094 3.38 29.715 1.3 24.777.173 22.265-.173 19.492 0 16.72c.26-3.985 1.733-7.537 4.332-10.569C6.93 3.205 10.136 1.213 13.948.433c1.993-.433 3.985-.52 5.978-.346 4.158.433 7.71 2.165 10.656 5.024 2.685 2.686 4.418 5.891 5.024 9.617.087.606.174 1.3.26 1.906v2.512z" fill="#474D5B"/></g><defs><clipPath id="clip0_1_162"><path fill="#fff" d="M0 0h35.866v35H0z"/></clipPath></defs></svg>