<svg width="105" height="45" fill="none" xmlns="http://www.w3.org/2000/svg"><path d="M0 45C-.006 44.95.097.01.175.003.29-.01.479.018.55.062.647.123.672.213.718.29c1.55 2.697 3.102 5.39 4.666 8.085.084.148.207.293.349.429 3.096 2.938 6.204 5.876 9.306 8.813.065.065.143.127.24.22 1.428 0 2.83.006 4.226-.003.446-.003.802.04 1.073.21.065.04.149.074.226.108 3.122 1.356 5.843 2.879 8.26 4.525.2.136.433.257.62.396.188.136.381.157.705.102 1.26-.207 2.533-.39 3.787-.602.491-.084.814-.056 1.182.126 1.26.621 2.566 1.22 3.84 1.832.148.071.252.167.445.297.711-.356 1.293-.658 1.9-.949.834-.401 1.68-.797 2.52-1.195.11-.05.214-.102.33-.146.194-.067.375-.049.485.047.084.07.13.151.194.228 1.487 1.876 2.986 3.748 4.453 5.626.181.232.446.337.918.408 1.254.185 2.494.386 3.729.593.29.05.588.133.808.234 1.422.662 2.818 1.332 4.233 1.996.245.114.51.22.795.312 1.357.436 2.733.859 4.09 1.297.279.09.537.207.744.334 1.377.856 2.734 1.72 4.104 2.583.13.08.265.157.42.25 1.254-.195 2.495-.39 3.736-.584.206-.03.407-.068.607-.099.588-.09.633-.083.879.183a310.99 310.99 0 011.738 1.924c.912 1.01 1.83 2.017 2.786 3.074.162-.118.29-.204.407-.294 1.319-1.038 2.63-2.076 3.949-3.114.13-.102.29-.194.472-.312.245.072.452.124.646.186 1.35.423 2.689.852 4.046 1.27.303.092.64.17.982.225 2.895.46 5.784.917 8.686 1.365.478.074.808.192 1.066.402 1.429 1.15 2.889 2.289 4.343 3.435.091.071.207.14.246.216.026.056.091.652.007.677H0z" fill="url(#paint0_linear_1_7256)"/><defs><linearGradient id="paint0_linear_1_7256" x1="52" y1="0" x2="52" y2="44.998" gradientUnits="userSpaceOnUse"><stop stop-color="#ED6E77"/><stop offset=".248" stop-color="#EE7179" stop-opacity=".752"/><stop offset=".401" stop-color="#EF797F" stop-opacity=".599"/><stop offset=".529" stop-color="#F0878A" stop-opacity=".471"/><stop offset=".643" stop-color="#F3999A" stop-opacity=".357"/><stop offset=".747" stop-color="#F6B1AF" stop-opacity=".253"/><stop offset=".845" stop-color="#F9CBC9" stop-opacity=".155"/><stop offset=".935" stop-color="#FDE8E7" stop-opacity=".065"/><stop offset="1" stop-color="#fff" stop-opacity="0"/></linearGradient></defs></svg>