<svg width="105" height="46" fill="none" xmlns="http://www.w3.org/2000/svg"><path d="M.343 44.905c-.021-.114-.091-2.6-.05-2.704.54-1.34 1.086-2.685 1.667-4.016.09-.205.328-.4.573-.56.89-.585 1.806-1.153 2.709-1.735.238-.154.455-.322.678-.482.07.005.14.005.21.01.56 2.44 1.127 4.88 1.687 7.32.049 0 .098-.005.154-.005.287-.9.63-1.8.847-2.708.469-1.922 1.35-3.762 2.38-5.58.706-1.258 1.51-2.503 2.12-3.78.56-1.181.91-2.408 1.35-3.612.245-.668.497-1.34.784-2.131.65.445 1.162.822 1.722 1.158.168.1.503.137.748.114 1.12-.1 1.484-.659 1.953-1.245 1.442-1.795 1.742-3.776 2.421-5.698.224-.631.33-1.29.644-1.899.21-.4.72-.736 1.057-1.113.588-.663 1.49-.932 2.624-.977.413-.018.497.123.574.323.49 1.2 1.008 2.394 1.49 3.594.302.731.295.768 1.386.595.637-.1.875 0 1.099.39.455.8 1.008 1.573 1.56 2.422 1.281-.8 2.492-1.549 3.759-2.34.587.473 1.126.886 1.623 1.323.259.222.476.236.854.122.763-.227 1.54-.44 2.344-.586.938-.168 1.449-.636 2.044-1.054a66 66 0 01.812-.563c.671 1.19 1.294 2.294 1.966 3.48l1.939-1.231 1.658 1.876c.504-.513.973-.977 1.42-1.44 1.302-1.35 2.611-2.699 3.899-4.058.245-.258.518-.336.951-.222.847.222 1.561.163 2.086-.4.658-.709 1.736-.881 2.925-.89.182 0 .364-.032.539-.032 1.134-.014 1.673-.423 2.002-1.105.356-.736.91-1.435 1.378-2.149h.203c.259.46.518.918.77 1.377.182.332.427.663.51 1.009.232.945.966 1.613 2.317 2.017.252.073.434.296.574.473.49.608.952 1.231 1.519 1.972l2.505-3.435c.105-.146.238-.291.3-.446.302-.727.89-1.222 2.142-1.317.245-.019.532-.26.651-.437.49-.745.84-1.535 1.414-2.253.63-.79 1.441-1.522 2.211-2.313.714.31 1.316.568 1.98.859.554-.55 1.12-1.081 1.617-1.636.238-.263.504-.354.945-.277.175.032.364.023.546.041.483.05.735-.077 1.036-.345 1.532-1.363 2.078-2.967 2.736-4.544.182-.44.357-.886.58-1.318.07-.136.267-.295.463-.35 1.406-.363 2.288-1.085 3.149-1.835.133-.114.3-.21.525-.359 1.595 1.563 2.624 3.262 3.786 4.943.476-.113.916-.186 1.308-.322.406-.141.665-.068.96.118.391.245.804.486 1.238.695.602.286 1.169.704 2.12.777.455.036.679-.173.679.168.007.264.609 38.416.126 38.444L.343 44.905z" fill="url(#paint0_linear_1_7249)"/><defs><linearGradient id="paint0_linear_1_7249" x1="52.138" y1="8.301" x2="52.138" y2="50.957" gradientUnits="userSpaceOnUse"><stop stop-color="#40B6A7"/><stop offset=".248" stop-color="#45B7A9" stop-opacity=".752"/><stop offset=".401" stop-color="#55BBAD" stop-opacity=".599"/><stop offset=".529" stop-color="#6CC1B4" stop-opacity=".471"/><stop offset=".568" stop-color="#74C4B7" stop-opacity=".438"/><stop offset=".643" stop-color="#83C9BD" stop-opacity=".375"/><stop offset=".643" stop-color="#87CABF" stop-opacity=".357"/><stop offset=".719" stop-color="#9CD3C9" stop-opacity=".281"/><stop offset=".747" stop-color="#A4D6CD" stop-opacity=".253"/><stop offset=".845" stop-color="#C5E4DD" stop-opacity=".155"/><stop offset=".845" stop-color="#C8E6DF" stop-opacity=".05"/><stop offset=".935" stop-color="#E5F3F0" stop-opacity=".02"/><stop offset="1" stop-color="#fff" stop-opacity="0"/><stop offset="1" stop-color="#fff" stop-opacity="0"/></linearGradient></defs></svg>