<svg width="104" height="46" fill="none" xmlns="http://www.w3.org/2000/svg"><path d="M103.844 44.886c.021-.114.091-2.61.049-2.714a146.926 146.926 0 00-1.668-4.033c-.091-.206-.329-.402-.575-.561-.89-.589-1.808-1.16-2.712-1.743-.238-.155-.456-.324-.68-.484-.07.005-.14.005-.21.01-.56 2.45-1.129 4.9-1.69 7.349-.048 0-.098-.005-.154-.005-.287-.903-.63-1.806-.848-2.719-.47-1.93-1.352-3.777-2.383-5.602-.708-1.264-1.514-2.514-2.123-3.795-.561-1.187-.912-2.418-1.353-3.627-.246-.67-.498-1.346-.785-2.14-.652.447-1.164.826-1.725 1.163-.168.1-.504.137-.75.114-1.12-.1-1.485-.661-1.955-1.25-1.444-1.802-1.745-3.79-2.425-5.72-.224-.634-.33-1.296-.645-1.907-.21-.402-.722-.74-1.058-1.118-.589-.666-1.493-.935-2.629-.98-.413-.019-.497.122-.574.323-.491 1.204-1.01 2.404-1.493 3.609-.302.734-.295.77-1.388.597-.638-.1-.876 0-1.1.393-.456.803-1.01 1.578-1.564 2.431-1.282-.803-2.495-1.555-3.763-2.35-.59.475-1.129.89-1.627 1.328-.259.224-.476.238-.855.123a21.754 21.754 0 00-2.348-.588c-.939-.169-1.45-.639-2.046-1.058-.225-.16-.456-.32-.813-.566-.673 1.195-1.297 2.304-1.97 3.494l-1.941-1.236c-.533.602-1.059 1.2-1.661 1.884-.505-.515-.975-.98-1.423-1.446-1.304-1.355-2.615-2.71-3.904-4.074-.246-.26-.519-.337-.954-.223-.848.223-1.563.164-2.088-.402-.66-.712-1.738-.885-2.93-.894-.182 0-.364-.032-.54-.032-1.135-.014-1.675-.424-2.004-1.109-.358-.739-.912-1.441-1.381-2.157h-.203c-.26.46-.519.921-.771 1.382-.183.333-.428.666-.512 1.013-.231.949-.967 1.62-2.32 2.025-.252.073-.434.297-.575.475-.49.611-.953 1.236-1.52 1.98a5106.01 5106.01 0 01-2.51-3.45c-.105-.145-.238-.291-.301-.446-.302-.73-.89-1.227-2.145-1.323-.245-.018-.533-.26-.652-.438-.49-.748-.841-1.542-1.416-2.263-.63-.794-1.444-1.528-2.215-2.322-.715.31-1.317.57-1.983.862-.554-.552-1.122-1.086-1.62-1.642-.238-.265-.504-.356-.945-.278-.176.031-.365.022-.547.04-.484.05-.736-.077-1.037-.346-1.535-1.369-2.082-2.98-2.741-4.562-.182-.443-.357-.89-.582-1.323-.07-.137-.266-.297-.462-.351-1.41-.365-2.292-1.09-3.154-1.844-.134-.114-.302-.21-.526-.36-1.598 1.57-2.628 3.276-3.792 4.964-.477-.114-.918-.187-1.31-.324-.407-.142-.667-.069-.96.118-.393.247-.807.488-1.242.698-.602.288-1.17.707-2.123.78-.456.037-.68-.173-.68.17-.007.264-.61 38.571-.126 38.599l103.656-.119z" fill="url(#paint0_linear_1_7314)"/><defs><linearGradient id="paint0_linear_1_7314" x1="51.965" y1="-.018" x2="51.965" y2="44.981" gradientUnits="userSpaceOnUse"><stop stop-color="#ED6E77"/><stop offset=".248" stop-color="#EE7179" stop-opacity=".752"/><stop offset=".401" stop-color="#EF797F" stop-opacity=".599"/><stop offset=".529" stop-color="#F0878A" stop-opacity=".471"/><stop offset=".643" stop-color="#F3999A" stop-opacity=".357"/><stop offset=".747" stop-color="#F6B1AF" stop-opacity=".253"/><stop offset=".845" stop-color="#F9CBC9" stop-opacity=".155"/><stop offset=".935" stop-color="#FDE8E7" stop-opacity=".065"/><stop offset="1" stop-color="#fff" stop-opacity="0"/></linearGradient></defs></svg>