<svg width="105" height="46" fill="none" xmlns="http://www.w3.org/2000/svg"><path d="M.131 44.979c-.295-.47 0-11.573 0-12.927 1.215.14 2.013.323 2.473.961 1.75 2.483 2.264 5.141 2.79 7.8.108.575.338 1.143.579 1.963 1.433-1.655 2.746-3.107 3.949-4.6.645-.8 1.006-1.712 2.385-2.154.295-.091.842-.133 1.05-.028 1.083.575 2.09 1.206 3.14 1.83 1.86-.603 1.925-1.907 2.275-3.036.798-2.567 2.44-4.882 4.55-7.098 1.97.154 2.451 1.192 3.107 2.125.22.316.394.645.657.94.12.14.394.33.59.322 2.145-.07 2.768 1.102 3.26 1.957 1.324 2.308 2.309 4.692 3.348 7.056.317.722.952.624 1.794.54 2.352-.231 1.805-1.487 2.002-2.399.437-2.006.71-4.032 1.028-6.045.12-.8.23-1.607.252-2.406.01-.512.36-.673 1.094-.631 3.095.182 3.205.21 4.452-1.578 1.16-1.663 2.122-3.388 3.074-5.113.766-1.396 1.367-2.827 2.056-4.237.077-.161.23-.308.46-.617.558.68 1.017 1.227 1.608 1.95.46-1.108.853-2.055 1.225-3.009.372-.96.405-.926 1.914-.736.788.098 1.652-.085 2.538-.14.46 1.17.832 2.37 1.434 3.52.437.842 1.126 1.648 1.86 2.413.196.203.94.196 1.563.308.558-2.097.941-4.102 1.641-6.06.722-2.005 1.444-4.018 3.37-5.758.722-.652 1.487-.834 2.516-.505 1.619.526 3.03.197 4.408-.35 2.276-.898 2.615-.856 4.168.484.12.098.24.196.383.308.361-.442.766-.848 1.028-1.297.383-.674.93-1.115 2.265-.87a994.094 994.094 0 011.849-4.945c.109.014.218.035.317.05.481.63.973 1.255 1.575 2.04.448-1.15.81-2.104 1.192-3.065C87.854.694 89.057.26 91.026.456c.602.056 1.258-.21 1.903-.267.679-.063 1.39-.12 2.057-.056 1.258.126 2.494.337 3.927.54.285.365.788.863 1.061 1.403.394.8 1.236 1.1 2.407 1.003 1.313-.113 1.564-.884 1.575-1.656l.055 43.59L.131 44.98z" fill="url(#paint0_linear_1_7268)"/><defs><linearGradient id="paint0_linear_1_7268" x1="52.002" y1="11.89" x2="52.002" y2="56.792" gradientUnits="userSpaceOnUse"><stop stop-color="#40B6A7"/><stop offset=".248" stop-color="#45B7A9" stop-opacity=".752"/><stop offset=".401" stop-color="#55BBAD" stop-opacity=".599"/><stop offset=".529" stop-color="#6CC1B4" stop-opacity=".471"/><stop offset=".643" stop-color="#87CABF" stop-opacity=".357"/><stop offset=".747" stop-color="#A4D6CD" stop-opacity=".253"/><stop offset=".845" stop-color="#C5E4DD" stop-opacity=".155"/><stop offset=".935" stop-color="#E5F3F0" stop-opacity=".065"/><stop offset="1" stop-color="#fff" stop-opacity="0"/></linearGradient></defs></svg>