<svg width="16" height="14" fill="none" xmlns="http://www.w3.org/2000/svg"><path d="M16 4.879c-.031.218-.094.435-.126.653a4.553 4.553 0 01-1.223 2.082c-2.07 2.05-4.141 4.102-6.18 6.153-.314.31-.628.31-.91 0L1.349 7.614C.69 6.96.251 6.215.094 5.314-.22 3.543.345 2.051 1.757.932 2.573.28 3.514 0 4.517 0c1.224 0 2.29.466 3.17 1.336.093.094.187.187.282.28 0 0 .031 0 .031.031a7.68 7.68 0 01.502-.466C9.224.528 10.07.124 11.043.03c1.632-.155 2.98.435 4.016 1.71.502.652.816 1.367.91 2.175 0 .03.031.062.031.093v.87zm-8.031 7.77c.062-.032.062-.063.094-.063l5.804-5.75a3.27 3.27 0 001.004-2.392c0-.994-.408-1.802-1.13-2.455C12.611.994 10.792.87 9.6 1.802c-.408.311-.753.684-1.13 1.057-.282.28-.627.28-.91 0l-.658-.653C5.71 1.056 4.078.84 2.698 1.71c-1.16.746-1.663 1.834-1.537 3.201.094.715.439 1.367 1.004 1.927l5.71 5.656a.677.677 0 01.094.155z" fill="#7DB8C4"/></svg>