<svg width="131" height="57" fill="none" xmlns="http://www.w3.org/2000/svg"><g clip-path="url(#clip0_1_7504)"><path d="M85.975 0v11.923H75.689c-5.24 0-17.66-.097-17.66-.097s0 14.057.096 19.291h14.362v-4.265h-5.725V16.77h19.407c0 6.495.097 12.893-.097 19.291 0 1.163-.68 2.424-1.359 3.49-1.94 3.102-4.851 4.75-8.539 4.75-7.18 0-14.264.097-21.445 0-6.016-.097-10.286-4.556-10.286-10.373 0-7.56.194-15.122.194-22.586 0-5.429-.194-11.439 7.084-11.342 6.89.097 25.617 0 34.254 0zM40.95 31.117v12.99c-.68 0-1.456.097-2.135.097h-27.85C4.27 44.301 0 40.036 0 33.25c0-7.367 0-14.832.097-22.296 0-3.49 1.359-9.79 8.442-10.372C10.771.388 37.65.388 40.95.485c0 3.877-.29 8.24-.29 12.31H13.78v18.322h27.17zm75.689 13.184h-12.712v-8.143c.097-7.561-.097-24.138-.097-24.138H89.856V.097h41.241V12.02H116.93s-.194 21.036-.097 29.47c-.194.775-.194 1.648-.194 2.811z" opacity=".75" fill="#000"/><path d="M85.975 0v11.923H75.689c-5.24 0-17.66-.097-17.66-.097s0 14.057.096 19.291h14.362v-4.265h-5.725V16.77h19.407c0 6.495.097 12.893-.097 19.291 0 1.163-.68 2.424-1.359 3.49-1.94 3.102-4.851 4.75-8.539 4.75-7.18 0-14.264.097-21.445 0-6.016-.097-10.286-4.556-10.286-10.373 0-7.56.194-15.122.194-22.586 0-5.429-.194-11.439 7.084-11.342 6.89.097 25.617 0 34.254 0z" fill="url(#paint0_linear_1_7504)"/><path d="M40.95 31.117v12.99c-.68 0-1.456.097-2.135.097h-27.85C4.27 44.301 0 40.036 0 33.25c0-7.367 0-14.832.097-22.296 0-3.49 1.359-9.79 8.442-10.372C10.771.388 37.65.388 40.95.485c0 3.877-.29 8.24-.29 12.31H13.78v18.322h27.17z" fill="url(#paint1_linear_1_7504)"/><path d="M116.639 44.301h-12.712v-8.143c.097-7.561-.097-24.138-.097-24.138H89.856V.097h41.241V12.02H116.93s-.194 21.036-.097 29.47c-.194.775-.194 1.648-.194 2.811z" fill="url(#paint2_linear_1_7504)"/><path d="M.68 52.832c0-2.715 1.843-4.266 3.88-4.266 1.068 0 1.941.485 2.524 1.067L5.919 50.99c-.388-.388-.776-.582-1.358-.582-.97 0-1.747.873-1.747 2.327 0 1.55.68 2.326 1.747 2.326.582 0 1.164-.29 1.455-.678l1.165 1.357a3.47 3.47 0 01-2.62 1.163C2.523 57 .679 55.643.679 52.832zm7.665-4.072h3.105c1.747 0 3.203.582 3.203 2.617 0 1.94-1.456 2.715-3.203 2.715h-.873v2.714H8.345V48.76zm2.911 3.684c.874 0 1.262-.388 1.262-1.067 0-.678-.485-.872-1.262-.872h-.776v2.036h.776v-.097zm-.194 1.163l1.456-1.454 2.62 4.653h-2.426l-1.65-3.199zm6.308.485l-2.426-5.332h2.329l.582 1.648c.194.582.388 1.163.582 1.842.194-.679.388-1.163.68-1.842l.581-1.648h2.232l-2.425 5.332v2.811H17.37v-2.811zm4.949-5.332h3.008c1.746 0 3.299.679 3.299 2.714 0 1.94-1.553 2.812-3.202 2.812h-.874v2.52h-2.232V48.76zm2.91 3.878c.874 0 1.262-.388 1.262-1.164 0-.775-.485-.969-1.261-.969h-.68v2.133h.68zm6.114-2.036h-2.135v-1.745h6.405v1.745h-2.135v6.301h-2.135v-6.301zm4.755 2.133c0-2.618 1.552-4.169 3.784-4.169 2.232 0 3.785 1.551 3.785 4.169 0 2.617-1.553 4.265-3.785 4.265s-3.784-1.551-3.784-4.265zm5.337 0c0-1.454-.582-2.327-1.553-2.327-.97 0-1.552.873-1.552 2.327s.582 2.423 1.552 2.423c.97 0 1.553-.872 1.553-2.423zm5.822.097c0-2.715 1.844-4.266 4.076-4.266 1.164 0 2.037.485 2.62 1.067l-1.165 1.357c-.388-.388-.776-.582-1.455-.582-1.068 0-1.941.873-1.941 2.327 0 1.55.68 2.326 2.135 2.326.194 0 .485-.097.582-.194v-1.163h-1.165v-1.745h3.106v3.878c-.583.581-1.553.97-2.717.97-2.33.193-4.076-1.164-4.076-3.975zm8.345-4.072h2.135v6.301h3.105v1.745h-5.24V48.76zm5.725 3.975c0-2.618 1.553-4.169 3.785-4.169s3.784 1.551 3.784 4.169c0 2.617-1.552 4.265-3.784 4.265-2.232 0-3.785-1.551-3.785-4.265zm5.337 0c0-1.454-.582-2.327-1.552-2.327-.97 0-1.553.873-1.553 2.327s.582 2.423 1.553 2.423c.97 0 1.552-.872 1.552-2.423zm3.688-3.975h2.911c1.65 0 3.105.388 3.105 2.036 0 .678-.388 1.454-1.067 1.745v.097c.776.194 1.358.775 1.358 1.939 0 1.647-1.455 2.423-3.202 2.423h-3.202v-8.24h.097zm2.814 3.2c.68 0 1.067-.292 1.067-.776 0-.485-.29-.679-1.067-.679h-.68v1.551h.68v-.097zm.194 3.295c.873 0 1.261-.29 1.261-.872 0-.582-.388-.776-1.261-.776h-.873v1.648h.873zm6.016-6.495h2.62l2.426 8.046H82.19l-.873-3.974c-.194-.776-.388-1.745-.582-2.52h-.097c-.194.775-.388 1.744-.582 2.52l-.874 3.974H76.95l2.426-8.046zm-.679 4.75h3.979v1.648h-3.979V53.51zm6.405-4.75h2.134v6.301h3.105v1.745h-5.24V48.76zm10.674 1.842H93.64v-1.745h6.404v1.745H97.91v6.301h-2.134v-6.301zm5.434-1.842h3.105c1.746 0 3.202.582 3.202 2.617 0 1.94-1.456 2.715-3.202 2.715h-.874v2.714h-2.134V48.76h-.097zm2.911 3.684c.873 0 1.261-.388 1.261-1.067 0-.678-.485-.872-1.261-.872h-.777v2.036h.777v-.097zm-.194 1.163l1.455-1.454 2.62 4.653h-2.426l-1.649-3.199zm5.143-4.847h5.24v1.745h-3.106v1.26h2.62v1.745h-2.62v1.454h3.203v1.745h-5.337V48.76zm6.986 0h2.232l1.747 3.587.776 1.842h.097c-.097-.873-.291-2.133-.291-3.102V48.76h2.038v8.046h-2.232l-1.747-3.587-.776-1.842h-.097c.097.873.291 2.133.291 3.102v2.327h-2.038V48.76zm8.345 0h2.426c2.426 0 4.173 1.163 4.173 3.975 0 2.908-1.65 4.071-4.076 4.071h-2.523V48.76zm2.232 6.398c1.165 0 2.135-.485 2.135-2.326 0-1.94-.873-2.327-2.135-2.327h-.097v4.653h.097z" opacity=".65" fill="#000"/><path d="M.68 52.832c0-2.715 1.843-4.266 3.88-4.266 1.068 0 1.941.485 2.524 1.067L5.919 50.99c-.388-.388-.776-.582-1.358-.582-.97 0-1.747.873-1.747 2.327 0 1.55.68 2.326 1.747 2.326.582 0 1.164-.29 1.455-.678l1.165 1.357a3.47 3.47 0 01-2.62 1.163C2.523 57 .679 55.643.679 52.832zm7.665-4.072h3.105c1.747 0 3.203.582 3.203 2.617 0 1.94-1.456 2.715-3.203 2.715h-.873v2.714H8.345V48.76zm2.911 3.684c.874 0 1.262-.388 1.262-1.067 0-.678-.485-.872-1.262-.872h-.776v2.036h.776v-.097zm-.194 1.163l1.456-1.454 2.62 4.653h-2.426l-1.65-3.199zm6.308.485l-2.426-5.332h2.329l.582 1.648c.194.582.388 1.163.582 1.842.194-.679.388-1.163.68-1.842l.581-1.648h2.232l-2.425 5.332v2.811H17.37v-2.811zm4.949-5.332h3.008c1.746 0 3.299.679 3.299 2.714 0 1.94-1.553 2.812-3.202 2.812h-.874v2.52h-2.232V48.76zm2.91 3.878c.874 0 1.262-.388 1.262-1.164 0-.775-.485-.969-1.261-.969h-.68v2.133h.68zm6.114-2.036h-2.135v-1.745h6.405v1.745h-2.135v6.301h-2.135v-6.301zm4.755 2.133c0-2.618 1.552-4.169 3.784-4.169 2.232 0 3.785 1.551 3.785 4.169 0 2.617-1.553 4.265-3.785 4.265s-3.784-1.551-3.784-4.265zm5.337 0c0-1.454-.582-2.327-1.553-2.327-.97 0-1.552.873-1.552 2.327s.582 2.423 1.552 2.423c.97 0 1.553-.872 1.553-2.423zm5.822.097c0-2.715 1.844-4.266 4.076-4.266 1.164 0 2.037.485 2.62 1.067l-1.165 1.357c-.388-.388-.776-.582-1.455-.582-1.068 0-1.941.873-1.941 2.327 0 1.55.68 2.326 2.135 2.326.194 0 .485-.097.582-.194v-1.163h-1.165v-1.745h3.106v3.878c-.583.581-1.553.97-2.717.97-2.33.193-4.076-1.164-4.076-3.975zm8.345-4.072h2.135v6.301h3.105v1.745h-5.24V48.76zm5.725 3.975c0-2.618 1.553-4.169 3.785-4.169s3.784 1.551 3.784 4.169c0 2.617-1.552 4.265-3.784 4.265-2.232 0-3.785-1.551-3.785-4.265zm5.337 0c0-1.454-.582-2.327-1.552-2.327-.97 0-1.553.873-1.553 2.327s.582 2.423 1.553 2.423c.97 0 1.552-.872 1.552-2.423zm3.688-3.975h2.911c1.65 0 3.105.388 3.105 2.036 0 .678-.388 1.454-1.067 1.745v.097c.776.194 1.358.775 1.358 1.939 0 1.647-1.455 2.423-3.202 2.423h-3.202v-8.24h.097zm2.814 3.2c.68 0 1.067-.292 1.067-.776 0-.485-.29-.679-1.067-.679h-.68v1.551h.68v-.097zm.194 3.295c.873 0 1.261-.29 1.261-.872 0-.582-.388-.776-1.261-.776h-.873v1.648h.873zm6.016-6.495h2.62l2.426 8.046H82.19l-.873-3.974c-.194-.776-.388-1.745-.582-2.52h-.097c-.194.775-.388 1.744-.582 2.52l-.874 3.974H76.95l2.426-8.046zm-.679 4.75h3.979v1.648h-3.979V53.51zm6.405-4.75h2.134v6.301h3.105v1.745h-5.24V48.76zm10.674 1.842H93.64v-1.745h6.404v1.745H97.91v6.301h-2.134v-6.301zm5.434-1.842h3.105c1.746 0 3.202.582 3.202 2.617 0 1.94-1.456 2.715-3.202 2.715h-.874v2.714h-2.134V48.76h-.097zm2.911 3.684c.873 0 1.261-.388 1.261-1.067 0-.678-.485-.872-1.261-.872h-.777v2.036h.777v-.097zm-.194 1.163l1.455-1.454 2.62 4.653h-2.426l-1.649-3.199zm5.143-4.847h5.24v1.745h-3.106v1.26h2.62v1.745h-2.62v1.454h3.203v1.745h-5.337V48.76zm6.986 0h2.232l1.747 3.587.776 1.842h.097c-.097-.873-.291-2.133-.291-3.102V48.76h2.038v8.046h-2.232l-1.747-3.587-.776-1.842h-.097c.097.873.291 2.133.291 3.102v2.327h-2.038V48.76zm8.345 0h2.426c2.426 0 4.173 1.163 4.173 3.975 0 2.908-1.65 4.071-4.076 4.071h-2.523V48.76zm2.232 6.398c1.165 0 2.135-.485 2.135-2.326 0-1.94-.873-2.327-2.135-2.327h-.097v4.653h.097z" fill="#17233B"/></g><defs><linearGradient id="paint0_linear_1_7504" x1="65.237" y1="0" x2="65.237" y2="44.306" gradientUnits="userSpaceOnUse"><stop stop-color="#0C3F67"/><stop offset=".187" stop-color="#0D3E65"/><stop offset=".383" stop-color="#103A5E"/><stop offset=".583" stop-color="#133353"/><stop offset=".785" stop-color="#142A45"/><stop offset=".987" stop-color="#131F33"/><stop offset="1" stop-color="#131E31"/></linearGradient><linearGradient id="paint1_linear_1_7504" x1="20.48" y1=".382" x2="20.48" y2="44.306" gradientUnits="userSpaceOnUse"><stop stop-color="#0C3F67"/><stop offset=".187" stop-color="#0D3E65"/><stop offset=".383" stop-color="#103A5E"/><stop offset=".583" stop-color="#133353"/><stop offset=".785" stop-color="#142A45"/><stop offset=".987" stop-color="#131F33"/><stop offset="1" stop-color="#131E31"/></linearGradient><linearGradient id="paint2_linear_1_7504" x1="110.382" y1="0" x2="110.382" y2="44.306" gradientUnits="userSpaceOnUse"><stop stop-color="#0C3F67"/><stop offset=".187" stop-color="#0D3E65"/><stop offset=".383" stop-color="#103A5E"/><stop offset=".583" stop-color="#133353"/><stop offset=".785" stop-color="#142A45"/><stop offset=".987" stop-color="#131F33"/><stop offset="1" stop-color="#131E31"/></linearGradient><clipPath id="clip0_1_7504"><path fill="#fff" d="M0 0h131v57H0z"/></clipPath></defs></svg>