<svg width="20" height="20" fill="none" xmlns="http://www.w3.org/2000/svg"><g clip-path="url(#clip0_1_7435)"><path d="M8.933 10.4c-.355.356-.622.356-1.022 0L5.29 7.778l-.845-.845c-.177-.177-.177-.444-.044-.666.133-.223.356-.311.622-.267a.968.968 0 01.356.222l2.8 2.8.222.222 1.422-1.422c.4-.4.667-.4 1.067 0l3.333 3.334.222.222v-1.69c0-.355.223-.621.578-.621.311 0 .578.266.578.622v3.067c0 .355-.222.577-.578.577h-3.066c-.356 0-.578-.222-.623-.533 0-.311.223-.578.578-.622h1.645L10.31 8.933c-.4.534-.889.978-1.378 1.467zM20 10c0-5.511-4.489-10-10-10S0 4.489 0 10s4.489 10 10 10 10-4.489 10-10z" fill="#ED6E77"/></g><defs><clipPath id="clip0_1_7435"><path fill="#fff" d="M0 0h20v20H0z"/></clipPath></defs></svg>