<svg width="13" height="14" fill="none" xmlns="http://www.w3.org/2000/svg"><path d="M9.696 13.972c-.169-.056-.365-.084-.534-.169-.73-.337-1.32-1.18-1.068-2.276l-.927-.506c-1.096-.59-2.164-1.18-3.26-1.77-.084-.056-.14-.056-.253.028-.646.562-1.405.73-2.22.422C.648 9.42.17 8.829.03 7.986a2.157 2.157 0 011.827-2.5c.702-.113 1.292.084 1.826.561l.085.085c1.236-.815 2.473-1.63 3.737-2.417-.309-.787-.28-1.545.113-2.304A2.53 2.53 0 019.022.174c1.236-.477 2.641.057 3.287 1.237.647 1.152.31 2.613-.73 3.428a2.734 2.734 0 01-3.794-.562C6.577 5.064 5.34 5.88 4.132 6.666c.337.674.337 1.348 0 2.051l4.215 2.276c.197-.28.45-.506.759-.674 1.18-.59 2.641.168 2.782 1.49a1.96 1.96 0 01-1.602 2.163c-.028 0-.028.028-.056.028-.169-.028-.337-.028-.534-.028zm.253-9.217c1.096.028 2.051-.9 2.08-1.995.027-1.124-.872-2.136-2.024-2.136-1.124-.028-2.08.9-2.08 1.995A2.058 2.058 0 009.95 4.755zM2.193 9.25c.871 0 1.574-.703 1.574-1.574 0-.87-.703-1.573-1.574-1.573-.871 0-1.574.702-1.574 1.573S1.322 9.25 2.193 9.25zm7.784 4.103c.73 0 1.32-.59 1.32-1.35 0-.73-.59-1.292-1.32-1.292-.73 0-1.349.618-1.32 1.349 0 .73.59 1.32 1.32 1.293z" fill="#17AECB"/></svg>