<svg width="35" height="35" fill="none" xmlns="http://www.w3.org/2000/svg"><g clip-path="url(#clip0_1_160)"><path d="M17.584 0C27.307 0 35.084 7.862 35 17.584 35 27.222 27.138 35 17.5 35 7.778 35 0 27.138 0 17.33 0 7.779 7.947 0 17.584 0zm-1.521 20.797c.338.254.592.423.845.592 1.1.845 2.367.93 3.636.676 1.775-.423 3.043-1.521 3.888-3.128 1.015-1.775 1.269-3.635 1.1-5.664-.17-2.029-1.015-3.635-2.706-4.819-2.367-1.606-4.988-1.86-7.693-1.183-3.466.93-6.594 4.227-5.833 8.707.253 1.522 1.099 2.621 2.62 3.044.254.084.338 0 .423-.17a1.949 1.949 0 00-.17-2.028c-.76-1.015-.76-2.198-.506-3.382.76-3.128 4.227-5.242 7.355-4.48 1.775.422 3.043 1.521 3.466 3.466.169.93.253 1.86.085 2.79-.17 1.352-.592 2.62-1.438 3.72-.845 1.098-2.113 1.52-3.297 1.098-.676-.253-1.099-.676-1.014-1.437 0-.676.169-1.353.338-2.029.254-1.014.592-1.944.76-2.959.254-1.099-.338-1.775-1.352-2.029-.76-.169-1.353.17-1.775.761-.93 1.268-1.184 2.705-.592 4.142.084.254.084.423.084.677-.253.845-.422 1.775-.676 2.62-.592 2.283-1.099 4.566-.93 6.933 0 .338.085.76.085 1.184 2.367-1.86 2.79-4.481 3.297-7.102z" fill="#474D5B"/></g><defs><clipPath id="clip0_1_160"><path fill="#fff" d="M0 0h35v35H0z"/></clipPath></defs></svg>