<svg width="221" height="125" fill="none" xmlns="http://www.w3.org/2000/svg"><g clip-path="url(#clip0_1_7388)"><path d="M196.496 110.236h24.523c-1.251-27.508-10.75-51.553-28.759-72.38-4.964 4.116-9.798 8.12-14.706 12.2 6.513 8.702 11.477 18.114 14.725 28.406 3.228 10.292 4.647 20.846 4.217 31.774z" fill="#1EA460"/><path d="M132.298 2.526c-1.176 4.585-2.314 9.001-3.509 13.66 15.621 4.847 29.207 13.006 40.852 24.738 4.106-4.378 8.156-8.7 12.373-13.192-14.463-12.556-30.905-20.92-49.716-25.206z" fill="#76B949"/><path d="M116.659 13.323c.541-4.322 1.082-8.533 1.623-12.911-13.903-1.18-27.396.112-40.796 4.042.765 3.012 1.55 5.875 2.221 8.757.28 1.179 1.027.823 1.717.749 4.143-.524 8.286-1.217 12.448-1.591 7.278-.674 14.519-.224 21.723.898.28.019.56.019 1.064.056z" fill="#F9DC62"/><path d="M31.24 32.036c1.4 1.497 2.688 2.882 4.125 4.416 9.63-8.215 20.324-14.483 32.305-18.769-1.12-2.844-2.184-5.539-3.322-8.42C51.88 14.764 40.983 22.324 31.24 32.036z" fill="#EB6423"/><path d="M8.995 65.101c.915.45 1.717.842 2.203 1.085 4.292-6.942 9.07-13.79 14.407-20.827-.877-.73-2.072-1.74-3.415-2.863-4.89 7.71-9.724 14.465-13.195 22.605z" fill="#E42021"/><path d="M4.703 84.431c.522-1.703.933-3.443 1.456-5.408-.672-.28-1.25-.505-2.296-.917l-2.09 14.016C.82 100.262.299 105.427 0 110.404c.597-6.119 1.474-9.15 2.893-17.814l1.81-8.159z" fill="#C11718"/><path d="M135.041 114.546c.422 1.162-8.162-3.293-16.659-2.37-7.943.844-15.213 12.283-15.328 9.495-.077-1.955-3.987-81.657-5.805-105.123-.117-1.572.94-1.785 1.388-.543 9.031 25.147 33.64 90.907 36.404 98.541z" fill="url(#paint0_linear_1_7388)"/><path d="M115.203 97.118c.653-1.16 1.288-2.301 1.941-3.462.373.131.728.319 1.064.506.485.262.933.58 1.325.973.28.28.522.58.671.973.262.655.15 1.272-.224 1.834-.223.337-.559.486-.933.542-.41.056-.802 0-1.194-.093-.914-.244-1.736-.674-2.538-1.18-.037-.055-.075-.074-.112-.093zm-3.154 5.633c.709-1.273 1.4-2.545 2.109-3.836.093.037.168.056.242.093.878.412 1.699.917 2.408 1.572.392.356.728.749.952 1.254.28.617.28 1.216-.038 1.834-.261.524-.69.767-1.231.823-.523.056-1.008-.037-1.493-.206-1.008-.337-1.923-.842-2.8-1.422a1.013 1.013 0 00-.149-.112z" fill="#106381" stroke="#F6F6F6" stroke-width=".25" stroke-miterlimit="10"/><path d="M129.778 102.564c-1.978 8.102-9.872 13.136-17.692 11.19-7.875-1.946-12.429-10.143-10.488-18.114 1.96-7.972 9.798-13.136 17.711-11.153 7.745 1.928 12.429 9.974 10.469 18.077zm-13.213-11.995c-1.175-.693-2.333-1.366-3.49-2.04a158.31 158.31 0 01-1.007 1.815c.074.056.13.094.205.131.448.3.877.58 1.325.88a.783.783 0 01.355.692c0 .169-.075.3-.15.45a1076.835 1076.835 0 01-3.602 6.343c-.28.505-.559.992-.839 1.497-.168.299-.43.449-.766.411a1.304 1.304 0 01-.354-.131c-.373-.205-.728-.449-1.101-.673-.336.655-.672 1.272-1.027 1.927 1.008.655 2.016 1.291 3.005 1.928-.56 1.01-1.12 1.983-1.68 2.975.56.337 1.101.655 1.661.992.542-.973 1.083-1.909 1.624-2.882.448.299.877.599 1.325.898-.523.954-1.045 1.89-1.568 2.844.579.319 1.12.637 1.68.936.522-.954 1.026-1.909 1.549-2.844.075.037.112.056.168.075.746.393 1.549.711 2.37.917.653.168 1.288.261 1.96.205.727-.056 1.418-.262 1.996-.748.355-.3.616-.674.84-1.067.411-.73.728-1.515.803-2.358a2.94 2.94 0 00-.523-2.039 3.475 3.475 0 00-.746-.73c.149-.019.28-.037.41-.037 2.016-.281 3.192-2.19 3.061-3.818-.075-.823-.392-1.534-.877-2.17a6.79 6.79 0 00-1.736-1.535 1.46 1.46 0 01-.224-.15c.541-.935 1.064-1.87 1.605-2.806-.541-.337-1.045-.674-1.586-1.011-.541.936-1.083 1.871-1.642 2.807-.467-.243-.896-.487-1.363-.711.504-.992 1.008-1.965 1.512-2.957-.56-.3-1.083-.598-1.642-.898-.504.954-1.008 1.909-1.531 2.882z" fill="#106381" stroke="#F6F6F6" stroke-width=".25" stroke-miterlimit="10"/><path d="M12.43 109.562c0-48.802 39.451-88.36 88.123-88.36 48.671 0 88.124 39.558 88.124 88.36" stroke="#878787" stroke-width="3" stroke-miterlimit="10"/><path d="M17.3 109.562c0-46.426 37.53-84.057 83.831-84.057 46.302 0 83.813 37.631 83.813 84.057" stroke="#878787" stroke-width="3" stroke-miterlimit="10"/></g><defs><linearGradient id="paint0_linear_1_7388" x1="72.44" y1="40.418" x2="140.864" y2="108.842" gradientUnits="userSpaceOnUse"><stop stop-color="#8D99A7"/><stop offset=".438" stop-color="#B2B9C2"/><stop offset="1" stop-color="#DFE3E4"/></linearGradient><clipPath id="clip0_1_7388"><path fill="#fff" d="M0 0h221v125H0z"/></clipPath></defs></svg>