<svg width="18" height="12" fill="none" xmlns="http://www.w3.org/2000/svg"><g clip-path="url(#clip0_1_7447)"><path d="M9.566 4.731l5.194 5.195h-2.623c-.566.051-.977.463-.926.977.052.514.412.874.978.874h4.885c.566 0 .926-.36.926-.926V5.966c0-.566-.36-.977-.926-.977-.514 0-.925.41-.925.977V8.64c-.155-.154-.258-.257-.36-.309L10.49 3.034c-.668-.668-1.08-.668-1.697 0-.72.72-1.491 1.492-2.211 2.263l-.36-.36A187.695 187.695 0 001.697.411c-.154-.154-.36-.308-.566-.36C.72-.05.36.051.154.463c-.205.36-.205.72.103 1.08.412.463.874.926 1.337 1.337L5.76 7.046c.566.565 1.029.565 1.594 0 .72-.772 1.492-1.543 2.212-2.315z" fill="#ED6E77"/></g><defs><clipPath id="clip0_1_7447"><path fill="#fff" d="M0 0h18v11.777H0z"/></clipPath></defs></svg>