<svg width="35" height="35" fill="none" xmlns="http://www.w3.org/2000/svg"><g clip-path="url(#clip0_1_164)" fill="#474D5B"><path d="M19.444 35H15.64c-.423-.084-.845-.17-1.353-.254C5.58 33.14-1.353 24.77.254 14.71 1.69 5.326 10.23-1.015 19.698.085c7.017.845 12.935 6.002 14.71 12.765.254.846.423 1.776.592 2.706v3.804c-.084.084-.084.253-.084.338-.93 7.186-6.003 12.85-12.935 14.71-.846.254-1.691.423-2.537.592zm4.312-19.36c-1.69-1.099-3.635-1.522-5.833-1.69.422-1.353.845-2.621 1.268-3.89h.253c.761.17 1.438.338 2.198.508.592.084 1.015.253 1.1.93.169.76 1.099 1.268 1.775 1.183.76-.084 1.522-.76 1.606-1.437.17-.845-.253-1.606-1.014-2.029-.761-.338-1.607-.17-2.198.507-.17.17-.254.338-.423.508l-3.297-.761c-.423-.085-.676 0-.761.422-.338 1.268-.76 2.452-1.184 3.636-.084.338-.253.507-.676.507-1.86.084-3.72.507-5.326 1.437-.17.085-.507.085-.676 0-1.184-.592-2.283-.338-2.96.592-.676.93-.591 2.029.339 3.043.169.17.253.338.253.507-.169 1.438.423 2.621 1.353 3.636 1.437 1.521 3.213 2.282 5.157 2.62 3.466.592 6.679.17 9.553-1.944 1.353-1.014 2.114-2.283 2.114-4.058 0-.254.253-.592.422-.845.677-.761.846-1.606.423-2.537-.423-.845-1.268-1.352-2.282-1.268-.17 0-.677.254-1.184.423z"/><path d="M19.275 18.768c0-.76.592-1.268 1.353-1.268.76 0 1.353.592 1.353 1.437 0 .761-.592 1.268-1.353 1.268-.845 0-1.353-.591-1.353-1.437zm-3.465.085c0 .76-.508 1.352-1.354 1.352-.76 0-1.352-.591-1.352-1.352 0-.761.592-1.353 1.353-1.353.76 0 1.352.592 1.352 1.353zm-1.438 3.381c2.113 1.268 4.227 1.268 6.34 0 .085.085.085.17.17.254-.17.253-.254.592-.423.676-.76.254-1.522.592-2.283.676-1.183.17-2.367.085-3.466-.591-.254-.17-.338-.508-.507-.677 0-.169.085-.253.169-.338z"/></g><defs><clipPath id="clip0_1_164"><path fill="#fff" d="M0 0h35v35H0z"/></clipPath></defs></svg>