<svg width="13" height="12" fill="none" xmlns="http://www.w3.org/2000/svg"><g clip-path="url(#clip0_1_7559)"><path d="M9.408 8.82c.668.641 1.363 1.256 1.977 1.897.268.294.936.561.455 1.07-.481.48-.802-.108-1.096-.402-.668-.641-1.283-1.31-1.951-1.977-1.55 1.149-3.207 1.47-4.998.989-1.256-.321-2.245-1.07-2.94-2.165-1.443-2.219-1.042-5.292.936-6.976C3.82-.48 6.895-.454 8.9 1.336c2.084 1.844 2.325 4.811.508 7.484zm.347-3.528c0-2.379-2.058-4.41-4.437-4.41-2.405 0-4.41 2.031-4.41 4.41 0 2.405 2.005 4.41 4.41 4.436 2.38.054 4.437-2.03 4.437-4.436z" fill="#7DB8C4"/></g><defs><clipPath id="clip0_1_7559"><path fill="#fff" d="M0 0h12.027v12H0z"/></clipPath></defs></svg>