<svg width="35" height="35" fill="none" xmlns="http://www.w3.org/2000/svg"><g clip-path="url(#clip0_1_169)"><path d="M15.94 0h2.952c.168.084.253.084.421.169 7.169.674 13.157 5.819 15.012 12.735.253 1.012.422 2.024.59 3.12v2.952c-.084.337-.084.675-.168 1.012-1.265 9.361-10.29 16.193-19.82 14.759A17.395 17.395 0 01.085 15.771C.76 8.687 5.566 2.783 12.482.76 13.578.422 14.759.253 15.94 0zm-1.687 25.639c.422-.253.675-.422.928-.59a28.464 28.464 0 001.602-1.519c.337-.337.59-.422 1.012-.084 1.097.927 2.277 1.77 3.458 2.614 1.096.844 1.687.59 2.024-.759.928-4.385 1.855-8.686 2.783-13.072.085-.422 0-1.096-.253-1.35-.253-.252-.927-.168-1.35 0-3.71 1.35-7.337 2.784-10.963 4.217-1.771.675-3.542 1.35-5.313 2.109-.422.169-.675.59-1.012.843.337.253.674.59 1.096.675 1.096.422 2.193.675 3.205 1.012.422.169.843.084 1.18-.169 3.037-1.94 6.073-3.88 9.109-5.735.253-.168.59-.253.843-.421.085.084.17.253.253.337-.253.169-.421.253-.674.422-2.446 2.192-4.808 4.3-7.169 6.494-.169.168-.422.421-.506.674-.084 1.35-.169 2.7-.253 4.302z" fill="#474D5B"/></g><defs><clipPath id="clip0_1_169"><path fill="#fff" d="M0 0h34.916v35H0z"/></clipPath></defs></svg>