<svg width="35" height="35" fill="none" xmlns="http://www.w3.org/2000/svg"><g clip-path="url(#clip0_1_156)"><path d="M35 17.5C35 27.138 27.138 35 17.5 35S0 27.138 0 17.5 7.862 0 17.5 0 35 7.862 35 17.5zm-10.906-5.41c-.507.168-1.099.338-1.606.591-.17.085-.254 0-.338-.084-1.606-1.522-4.227-.677-4.734 1.437-.085.422-.085.845-.085 1.352-2.367-.169-4.312-1.183-5.918-3.043-.676 1.522-.423 2.79.76 3.889-.337-.17-.76-.254-1.183-.338.085 1.437.846 2.367 2.198 2.874h-1.183c.169.592.507 1.1 1.014 1.437.508.339 1.015.508 1.691.592-1.268.93-2.62 1.353-4.142 1.184.084.084.169.169.253.169 2.198 1.183 4.48 1.437 6.848.676 3.297-1.099 5.495-4.311 5.495-7.862 0-.17 0-.338.17-.423.507-.338.845-.76 1.183-1.268-.507.169-1.015.254-1.522.423v-.085c.507-.423.93-.93 1.1-1.522z" fill="#474D5B"/></g><defs><clipPath id="clip0_1_156"><path fill="#fff" d="M0 0h35v35H0z"/></clipPath></defs></svg>