<svg width="32" height="30" fill="none" xmlns="http://www.w3.org/2000/svg"><g clip-path="url(#clip0_1_173)" fill="#EBF5F9"><path d="M32 27.286c-.071.214-.071.428-.142.643-.356 1-1.067 1.571-1.991 1.857a4.565 4.565 0 01-1.423.214H3.271c-.924 0-1.707-.286-2.418-.928-.71-.643-.924-1.5-.853-2.43.071-.642.284-1.213.569-1.785l3.413-6.214C5.69 15.57 7.324 12.5 9.032 9.429c1.35-2.5 2.701-5 4.123-7.5A4.7 4.7 0 0114.65.286c.995-.572 2.133-.5 3.058.214.569.429.924 1 1.28 1.643.924 1.714 1.849 3.357 2.773 5.071 1.422 2.572 2.844 5.215 4.267 7.786 1.706 3.143 3.413 6.214 5.12 9.357.284.572.64 1.072.782 1.715 0 .142.07.285.07.5v.714zm-16 .285h12.587c.213 0 .497-.071.71-.142.214-.072.356-.215.285-.5 0-.215-.07-.429-.213-.643a118.654 118.654 0 00-1.707-3.072c-1.28-2.357-2.63-4.785-3.91-7.142-1.423-2.572-2.845-5.215-4.268-7.786A191.71 191.71 0 0016.57 3.07c-.071-.142-.213-.357-.356-.428-.213-.214-.355-.214-.569 0-.142.143-.284.357-.426.571-.711 1.215-1.351 2.429-1.991 3.643l-2.987 5.357c-1.351 2.5-2.773 5-4.125 7.572-1.208 2.143-2.346 4.285-3.555 6.428-.142.215-.213.429-.284.643-.072.286.07.572.355.643.213.072.427.072.64.072H16z"/><path d="M14.507 14.214V9.93c0-.572.426-1.143.995-1.286.57-.214 1.21 0 1.565.428.213.286.355.572.355 1v8.358c0 .643-.498 1.214-1.067 1.357-.64.143-1.28-.143-1.635-.715-.142-.214-.142-.5-.142-.785-.071-1.357-.071-2.715-.071-4.072zm2.915 8.572c-.07.785-.71 1.428-1.493 1.428-.782-.071-1.422-.714-1.422-1.5.07-.785.71-1.428 1.493-1.428.853.071 1.493.714 1.422 1.5z"/></g><defs><clipPath id="clip0_1_173"><path fill="#fff" d="M0 0h32v30H0z"/></clipPath></defs></svg>